<svg xmlns="http://www.w3.org/2000/svg" viewBox="0 0 262.87 196.34"><defs><style>.cls-1,.cls-4{fill:#f1cb6f;}.cls-1{opacity:0.1;}.cls-2{fill:#363636;}.cls-3{fill:#d8a045;}.cls-5{opacity:0.5;}.cls-6{fill:none;stroke:#fff;stroke-miterlimit:10;}.cls-7{fill:#666;}.cls-8{fill:#7f7f7f;}.cls-9{fill:#eebd4f;}.cls-10{fill:#f7ec41;}.cls-11{fill:#e9a727;}</style></defs><title>cuper</title><g id="Layer_2" data-name="Layer 2"><g id="OBJECTS"><circle class="cls-1" cx="131.61" cy="103.19" r="93.15" transform="translate(-34.42 123.29) rotate(-45)"/><path class="cls-2" d="M0,123.59a6,6,0,0,1,.72-3L45.6,32.23a5.85,5.85,0,0,1,5.54-3.57A6.3,6.3,0,0,1,55,30.09a4.21,4.21,0,0,1,1.88,3.4,5.89,5.89,0,0,1-.54,2.32L15,117.36H50.07V82.53Q50.07,78,56,78a7.38,7.38,0,0,1,4.12,1.17,3.76,3.76,0,0,1,1.78,3.34v34.83h9.84A3.83,3.83,0,0,1,75,119a6.35,6.35,0,0,1,1.16,3.73,6.25,6.25,0,0,1-1.25,3.89,3.88,3.88,0,0,1-3.22,1.65H61.87v26.41a4,4,0,0,1-1.78,3.44A7,7,0,0,1,56,159.38a6.84,6.84,0,0,1-4.2-1.26,4.08,4.08,0,0,1-1.7-3.44V128.27H4.65Q0,128.27,0,123.59Z"/><path class="cls-2" d="M186.69,123.59a6,6,0,0,1,.72-3l44.88-88.33a5.85,5.85,0,0,1,5.54-3.57,6.3,6.3,0,0,1,3.85,1.43,4.21,4.21,0,0,1,1.88,3.4,5.89,5.89,0,0,1-.54,2.32l-41.31,81.55h35V82.53q0-4.52,5.9-4.51a7.38,7.38,0,0,1,4.12,1.17,3.76,3.76,0,0,1,1.78,3.34v34.83h9.84a3.83,3.83,0,0,1,3.31,1.64,6.35,6.35,0,0,1,1.16,3.73,6.25,6.25,0,0,1-1.25,3.89,3.88,3.88,0,0,1-3.22,1.65h-9.84v26.41a4,4,0,0,1-1.78,3.44,7,7,0,0,1-4.12,1.26,6.84,6.84,0,0,1-4.2-1.26,4.08,4.08,0,0,1-1.7-3.44V128.27H191.34Q186.69,128.27,186.69,123.59Z"/><polygon class="cls-3" points="167.2 59.98 157.08 68.85 149.55 56.38 138.13 65.21 135.75 78.71 120.73 85.21 120.73 87.8 120.73 113.77 147.47 113.77 160.2 98.45 170.84 76.9 167.2 59.98"/><path class="cls-4" d="M93.5,72.89S91,85.08,108.19,109.46c0,0,5.63,6.88,4.69,18.45,0,0,.8,11,7,11.39s30.13,0,30.13,0a9.4,9.4,0,0,0,7.64-9.19c.34-8.05,7.54-25.35,10.79-29.29s13.88-22.1,7.88-40.77c0,0-7.88-16.79-11.65-17.65l3.77,26.39-2.91,5.13h-4.11l-9.59,14.22-15.25,1.54-7.54,13-4.28-3.76-1.2-9.77L109.35,89,102.5,76.84Z"/><g class="cls-5"><polyline class="cls-6" points="129.05 101.69 131.61 108.68 130.33 116.4"/><polyline class="cls-6" points="131.61 107.83 141.2 112.1 136.41 131.52"/><polyline class="cls-6" points="151.84 88.14 155.02 98.58 153.43 107.83"/><line class="cls-6" x1="155.02" y1="98.58" x2="161.55" y2="90.94"/></g><path class="cls-7" d="M149.42,146.49H122.09a3,3,0,0,1-3-3h0a3,3,0,0,1,3-3h27.33a3,3,0,0,1,3,3h0A3,3,0,0,1,149.42,146.49Z"/><path class="cls-7" d="M149.42,157.07H122.09a3,3,0,0,1-3-3h0a3,3,0,0,1,3-3h27.33a3,3,0,0,1,3,3h0A3,3,0,0,1,149.42,157.07Z"/><path class="cls-8" d="M121.9,145.65h27.7a2.83,2.83,0,0,1,2.83,2.83h0a2.84,2.84,0,0,1-2.83,2.83H121.9a2.85,2.85,0,0,1-2.83-2.83h0A2.84,2.84,0,0,1,121.9,145.65Z"/><path class="cls-8" d="M124.07,158.38H148S137.42,173.31,124.07,158.38Z"/><path class="cls-9" d="M115.66,61.15s-.39-.21-1-.59c-.32-.19-.73-.41-1.17-.68s-1-.56-1.48-.9c-1.1-.64-2.33-1.43-3.66-2.23l-1-.62c-.34-.2-.69-.4-1-.62-.69-.43-1.41-.81-2.12-1.23s-1.44-.77-2.13-1.18L99.93,52l-2-.91c-.65-.25-1.26-.52-1.84-.76S95,50,94.49,49.82s-.92-.24-1.28-.36c-.72-.19-1.15-.33-1.15-.33s.42-.12,1.18-.25a7.14,7.14,0,0,1,1.38-.18c.54,0,1.15,0,1.82,0s1.38.16,2.14.28,1.51.38,2.32.61,1.58.58,2.38.92,1.57.76,2.33,1.2,1.51.88,2.2,1.39a24.5,24.5,0,0,1,2,1.51,28.41,28.41,0,0,1,3.23,3.06,23.78,23.78,0,0,1,2,2.46A11.81,11.81,0,0,1,115.66,61.15Z"/><path class="cls-10" d="M140.86,56a12.71,12.71,0,0,1,.35-1.68c.13-.54.33-1.17.57-1.89a24,24,0,0,1,.95-2.38c.19-.43.39-.88.61-1.34s.49-.91.75-1.38c.5-1,1.15-1.9,1.79-2.9.34-.48.72-.95,1.09-1.44a17.54,17.54,0,0,1,1.18-1.43,30.77,30.77,0,0,1,2.66-2.7l1.43-1.25,1.54-1.12a22.3,22.3,0,0,1,3.13-1.92A20.43,20.43,0,0,1,160,33.12c.51-.19,1-.41,1.48-.57l1.44-.36a23.21,23.21,0,0,1,2.5-.56c.76-.09,1.43-.14,2-.19,1.09-.09,1.71-.1,1.71-.1s-.58.27-1.57.68c-.5.2-1.1.45-1.8.7s-1.41.7-2.23,1.06l-1.26.6-1.3.74a29.06,29.06,0,0,0-2.73,1.67l-1.39.94c-.49.29-.9.7-1.37,1l-1.38,1.07L152.79,41c-.91.75-1.7,1.63-2.53,2.44S148.71,45.18,148,46s-1.43,1.67-2,2.51-1.22,1.6-1.73,2.35-1,1.44-1.41,2-.77,1.17-1,1.63C141.17,55.43,140.86,56,140.86,56Z"/><path class="cls-10" d="M124.9,52.49l-5.13-5.38-2.48-2.56-2.8-2.81c-.94-1-2-1.93-3-3s-2.11-2-3.2-3-2.15-2-3.26-2.88-2.14-1.88-3.24-2.69-2.08-1.71-3.12-2.41l-1.48-1.08a17,17,0,0,0-1.39-1c-.92-.59-1.75-1.17-2.5-1.68s-1.43-.87-2-1.21c-1.11-.68-1.74-1.1-1.74-1.1s.73.18,2,.56c.63.2,1.41.4,2.26.74s1.8.75,2.83,1.22A35.28,35.28,0,0,1,99.86,26a38.18,38.18,0,0,1,3.46,2.16c1.19.77,2.34,1.66,3.51,2.57s2.28,1.93,3.43,2.91,2.17,2.09,3.22,3.13,2,2.14,2.91,3.21,1.78,2.12,2.56,3.15,1.49,2,2.13,2.93A53.18,53.18,0,0,1,124,50.66C124.59,51.8,124.9,52.49,124.9,52.49Z"/><path class="cls-9" d="M130.71,41.17s0-.57,0-1.56a40.29,40.29,0,0,1,.43-4.09c.14-.84.27-1.75.49-2.7s.41-2,.69-3,.58-2.08.92-3.15.75-2.12,1.13-3.19.88-2.1,1.34-3.12,1-2,1.5-2.93a41.07,41.07,0,0,1,3.23-4.89c.54-.67,1.07-1.26,1.53-1.78a13.48,13.48,0,0,1,1.29-1.26c.73-.68,1.18-1,1.18-1s-.25.53-.72,1.4c-.22.44-.54.93-.83,1.55s-.62,1.3-1,2-.71,1.58-1.13,2.42-.75,1.8-1.19,2.72-.81,1.93-1.22,2.93l-1.22,3c-1.58,4.13-3.16,8.27-4.35,11.37-.59,1.57-1.12,2.87-1.49,3.78S130.71,41.17,130.71,41.17Z"/><path class="cls-10" d="M87.3,27.39A21.31,21.31,0,0,1,86.1,24a33.7,33.7,0,0,1-.76-3.42,34.22,34.22,0,0,1-.41-3.49,20.18,20.18,0,0,1,0-3.56,20.35,20.35,0,0,1,1.2,3.35,34.83,34.83,0,0,1,1.17,6.91A20.18,20.18,0,0,1,87.3,27.39Z"/><path class="cls-10" d="M79.82,23.64a20.19,20.19,0,0,1,2.88-2.13A34.8,34.8,0,0,1,89,18.35a20.3,20.3,0,0,1,3.43-1,20.69,20.69,0,0,1-2.87,2.13,32.24,32.24,0,0,1-3.08,1.73,33.26,33.26,0,0,1-3.23,1.42A21.6,21.6,0,0,1,79.82,23.64Z"/><path class="cls-11" d="M91.48,53.83a12.1,12.1,0,0,1-1.19-1.4c-.34-.43-.7-1-1.07-1.51s-.73-1.2-1.09-1.82a26.89,26.89,0,0,1-1.66-3.6,12.34,12.34,0,0,1-.54-1.76,13.29,13.29,0,0,1,1.19,1.4,26.09,26.09,0,0,1,2.15,3.33c.34.64.68,1.28,1,1.89s.53,1.2.72,1.72A14.4,14.4,0,0,1,91.48,53.83Z"/><path class="cls-11" d="M84.66,52.94a12.76,12.76,0,0,1,1-1.56c.32-.45.71-1,1.15-1.47s.93-1,1.43-1.58a30.23,30.23,0,0,1,3-2.66,12.57,12.57,0,0,1,1.54-1,13.73,13.73,0,0,1-1,1.56,28.55,28.55,0,0,1-2.58,3c-.52.51-1,1-1.54,1.47s-1,.86-1.44,1.19A14.1,14.1,0,0,1,84.66,52.94Z"/><path class="cls-11" d="M140.16,5.76a13.41,13.41,0,0,1,2-.27c.59,0,1.29-.08,2-.08s1.53,0,2.32.07a30.57,30.57,0,0,1,4.31.61,14.32,14.32,0,0,1,2,.55,15.61,15.61,0,0,1-2,.27,31.59,31.59,0,0,1-4.36,0c-.79,0-1.57-.14-2.31-.25s-1.42-.22-2-.36A14.9,14.9,0,0,1,140.16,5.76Z"/><path class="cls-11" d="M145,0a14.6,14.6,0,0,1,.84,1.85,20.4,20.4,0,0,1,.67,1.93c.22.72.43,1.48.61,2.26a29.84,29.84,0,0,1,.68,4.33,14.32,14.32,0,0,1,0,2,14.82,14.82,0,0,1-.84-1.84,31.55,31.55,0,0,1-1.28-4.19c-.17-.78-.32-1.56-.43-2.3s-.2-1.43-.25-2A14.47,14.47,0,0,1,145,0Z"/><path class="cls-10" d="M167.65,26a19,19,0,0,1,3,1.67A34.73,34.73,0,0,1,176,32a19.83,19.83,0,0,1,2.28,2.61,19.81,19.81,0,0,1-3-1.67,30.4,30.4,0,0,1-2.76-2,30.53,30.53,0,0,1-2.56-2.27A20.4,20.4,0,0,1,167.65,26Z"/><path class="cls-10" d="M175.53,23.92a20,20,0,0,1-.72,3.41c-.32,1.11-.7,2.19-1.12,3.25a32.6,32.6,0,0,1-1.44,3.12,19.92,19.92,0,0,1-1.84,3,20.24,20.24,0,0,1,.72-3.41c.31-1.1.7-2.18,1.12-3.25a33.77,33.77,0,0,1,1.44-3.12A19.92,19.92,0,0,1,175.53,23.92Z"/></g></g></svg>