<svg xmlns="http://www.w3.org/2000/svg" viewBox="0 0 107.1 50"><defs><style>.cls-1,.cls-4{fill:#d50032;}.cls-1,.cls-3{isolation:isolate;}.cls-2{fill:#fff;}</style></defs><title>Asset 1</title><g id="Layer_2" data-name="Layer 2"><g id="Layer_1-2" data-name="Layer 1"><polygon class="cls-1" points="104.07 26.97 104.07 26.55 105.35 26.55 106.06 15.74 104.58 15.74 104.58 15.33 106.09 15.33 106.68 6.41 105.23 6.41 105.23 5.59 106.73 5.59 107.1 0 2.11 0 1.81 4.44 2.67 4.44 2.67 5.25 1.75 5.25 1.15 14.17 1.44 14.17 1.44 14.59 1.12 14.59 0.39 25.4 0.94 25.4 0.94 25.82 0.36 25.82 0 31.07 105.05 31.07 105.32 26.97 104.07 26.97"/><path class="cls-2" d="M11.28,8.27h2.85L11.56,22.8H8.71Z"/><path class="cls-2" d="M14.28,22.8,16.86,8.27H19l4.68,9.08,1.57-9.08h2.85L25.55,22.8H23.39l-4.65-9.08L17.12,22.8Z"/><path class="cls-2" d="M31.51,22.8l-2-14.53h2.92l1.48,11.19L39.28,8.27h3.26L35.25,22.8Z"/><path class="cls-2" d="M44,8.27H46.8L44.23,22.8H41.38Z"/><path class="cls-2" d="M51.87,23.1a6.22,6.22,0,0,1-3.6-1,4.25,4.25,0,0,1-1.8-2.63l2.6-1.33a2.75,2.75,0,0,0,3,2.16,3.36,3.36,0,0,0,1.79-.41,1.62,1.62,0,0,0,.78-1.1,1.1,1.1,0,0,0-.44-1.23,8.6,8.6,0,0,0-2.13-.93A7.73,7.73,0,0,1,49,14.92a3.22,3.22,0,0,1-.69-3A4.3,4.3,0,0,1,50.2,9a6,6,0,0,1,3.43-1,5.35,5.35,0,0,1,3.06.86,4.78,4.78,0,0,1,1.83,2.38L56,12.54a2.65,2.65,0,0,0-2.59-1.8,2.58,2.58,0,0,0-1.45.37,1.57,1.57,0,0,0-.71,1,1.1,1.1,0,0,0,.43,1.21,8.48,8.48,0,0,0,2,1l.62.23a4.76,4.76,0,0,1,.62.24,5.33,5.33,0,0,1,.62.29l.55.33a3.91,3.91,0,0,1,.52.39c.14.14.28.29.42.46a1.75,1.75,0,0,1,.33.55,4,4,0,0,1,.2.64,2.93,2.93,0,0,1,.08.75,4.57,4.57,0,0,1-.08.88,4.38,4.38,0,0,1-1.9,3A6.74,6.74,0,0,1,51.87,23.1Z"/><path class="cls-2" d="M61.36,8.27h2.85L61.63,22.8H58.79Z"/><path class="cls-2" d="M76.33,12.46a4.12,4.12,0,0,1-1.85,2.89,3.25,3.25,0,0,1,1.31,3.34,4.57,4.57,0,0,1-1.67,3,5.79,5.79,0,0,1-3.75,1.14h-6L66.92,8.27h5.5a4,4,0,0,1,3.06,1.18A3.35,3.35,0,0,1,76.33,12.46ZM73,18.4a1.46,1.46,0,0,0-.27-1.22,1.44,1.44,0,0,0-1.18-.48H68.28l-.61,3.43h3.18a2.12,2.12,0,0,0,1.39-.49A2.19,2.19,0,0,0,73,18.4ZM72.08,11H69.3l-.57,3.19h2.81a1.91,1.91,0,0,0,1.26-.45,1.94,1.94,0,0,0,.65-1.15,1.37,1.37,0,0,0-.24-1.13A1.34,1.34,0,0,0,72.08,11Z"/><path class="cls-2" d="M80.25,20.06h5.54l-.47,2.74h-8.4l.48-2.74L79.49,8.27h2.85Z"/><path class="cls-2" d="M97.91,11h-6l-.55,3.11h5.52l-.5,2.68h-5.5l-.58,3.26h6.13l-.48,2.74H87L89.53,8.27h8.86Z"/><g class="cls-3"><path class="cls-4" d="M43.24,35.17h2.85L43.54,49.71H40.69l1.06-6H36.34l-1.07,6H32.42L35,35.17h2.85l-1,5.77h5.41Z"/><path class="cls-4" d="M51.83,50a5.36,5.36,0,0,1-4-1.41,3.86,3.86,0,0,1-1-3.64l1.72-9.78h2.85l-1.68,9.55a2.21,2.21,0,0,0,.34,1.8A2.31,2.31,0,0,0,52,47.2a3.16,3.16,0,0,0,2.17-.69,2.93,2.93,0,0,0,1-1.79l1.69-9.55H59.7L58,45a5.87,5.87,0,0,1-2.09,3.75A6.36,6.36,0,0,1,51.83,50Z"/><path class="cls-4" d="M76.43,35.17,73.88,49.71H71l1.7-9.66L67.25,47h-.32L64.2,40.18l-1.7,9.53H59.65l2.59-14.54h2.91l2.73,7,5.4-7Z"/><path class="cls-4" d="M86.11,49.71l-.46-2.62H79.74l-1.37,2.62h-3.1l7.61-14.54h3.61L89,49.71Zm-5-5.3h4l-.87-6.06Z"/><path class="cls-4" d="M90.45,49.71,93,35.17h2.13l4.68,9.08,1.57-9.08h2.85l-2.54,14.54H99.57l-4.65-9.08L93.3,49.71Z"/></g></g></g></svg>