<svg xmlns="http://www.w3.org/2000/svg" width="566" height="566" viewBox="0 0 566 566">
  <g id="Vector_Smart_Object1" data-name="Vector Smart Object1" transform="translate(-93.155 -77.133)">
    <g id="Group_20" data-name="Group 20">
      <g id="Group_8" data-name="Group 8">
        <g id="Group_7" data-name="Group 7">
          <path id="Path_84" data-name="Path 84" d="M426.366,220.715a43.008,43.008,0,0,0-4.005-1.782,29.9,29.9,0,0,0-13.239-8.4c-14.626-4.432-28.063-1.811-40.761,4.41a26.627,26.627,0,0,0-8.76,4.28,33.77,33.77,0,0,0-2.954,2.569,2.471,2.471,0,0,0-.4,3.115c-.376.2-.754.4-1.127.6-2.165,1.177-4.336,2.465-6.475,3.842-8.956-19.119-34.879-23.184-53.647-15.5-13.907,5.693-21.634,16.305-26.294,28.745a54.012,54.012,0,0,0-2.894,5.289,23.828,23.828,0,0,0-2.868,4.915,2.163,2.163,0,0,0,.1,1.635c-2.906,4.736-4.222,10.97-4.947,15.9a13.878,13.878,0,0,0-.907,8.362c-.48,7.563.061,16.043,4.119,21.705a2.7,2.7,0,0,0,1.134.88,10.087,10.087,0,0,0-.226,2.808c.245,3.471,2.87,5.547,5.959,6.029,6.262,10.225,12.106,20.6,20.407,29.593,11.113,12.034,25.355,20.877,40.024,27.955a2.626,2.626,0,0,0,2.942-.377c2.59,1.341,5.238,2.583,7.96,3.69,10.05,4.091,21.07,7.094,31.949,5.126q-1.064,1.861-2.019,3.811c-.85,1.743.137,4.309,2.4,4.159,21.161-1.4,34.788-24.345,46.513-39.243,7.609-9.667,16.509-18.23,23.8-28.165,7.259-9.9,11.084-20.921,12.357-33.055C456.9,260.73,448.137,231.785,426.366,220.715ZM439.3,242.785c3.349,5.41,4.573,11.6,4.556,17.913-.138-.641-.285-1.283-.447-1.93a57.732,57.732,0,0,0-7.092-16.5,52.7,52.7,0,0,0-3.292-6.848A32.559,32.559,0,0,1,439.3,242.785Zm-66.94,115.239c-.049.051-.095.1-.144.155a78.294,78.294,0,0,1-7.2,5.512,21.39,21.39,0,0,1,1.428-2.653C368.453,360.115,370.419,359.1,372.358,358.024ZM318.61,347.386q-.876-.859-1.747-1.727.367-.715.77-1.408,1.275,1.372,2.514,2.779C319.635,347.173,319.123,347.295,318.61,347.386Zm-11.72-12.228c.226,0,.451,0,.677-.007,1.46,1.153,2.909,2.317,4.318,3.518.772.658,1.514,1.341,2.245,2.038q-.428.655-.827,1.334C311.125,339.782,309,337.482,306.89,335.158Zm-33.912-50.091,0-.242c.089-.026.179-.048.268-.072C273.151,284.855,273.068,284.964,272.978,285.067Zm52.935-62.556a30.587,30.587,0,0,1,7.871,2.769,22.377,22.377,0,0,1,3.232,3.15q-2.221-1.035-4.522-1.9C330.351,225.094,328.132,223.761,325.914,222.511Zm45.967,18.816a77.7,77.7,0,0,1,13.411-10.3c2.075.146,4.141.349,6.2.584-.07.117-.143.236-.214.354-2,.67-3.966,1.411-5.824,2.2a78.7,78.7,0,0,0-13.1,7.122C372.2,241.3,372.039,241.308,371.881,241.327Zm46.81-1.912a19.354,19.354,0,0,1,3.534,4.662,31.142,31.142,0,0,0-6.729,2.249c-.073-.023-.146-.051-.218-.072a53.057,53.057,0,0,0,3.237-4.794A2.274,2.274,0,0,0,418.691,239.415Zm-.793,82.208a3.135,3.135,0,0,0-.709-.368,91.881,91.881,0,0,0,6.68-8.082q-1.208,2.277-2.523,4.478Q419.65,319.662,417.9,321.623Zm-38.569,21.25c.83-1,1.708-1.977,2.618-2.931q-.847,1.15-1.652,2.334C379.968,342.477,379.655,342.669,379.328,342.873Zm-48.284,8.9c-.218-.226-.424-.448-.638-.674.2-.435.411-.858.641-1.277A15.579,15.579,0,0,0,331.044,351.776Zm-14.057-14.89q-1.459-1.433-2.989-2.818a44.816,44.816,0,0,0,6.68-2.675c-.176.516-.361,1.032-.515,1.558a2.464,2.464,0,0,0-.1.641C318.985,334.649,317.954,335.743,316.987,336.886Zm-9.357-34.522c1.09-.7,2.169-1.4,3.225-2.089l.913-.6c-2.194,1.87-4.435,3.869-6.6,5.982C305.95,304.535,306.774,303.436,307.63,302.363Zm11.6-71.715c.24-.117.479-.239.721-.351-.064.1-.134.2-.2.307C319.579,230.617,319.4,230.632,319.231,230.648Zm10.962,3.645a9.638,9.638,0,0,0-5.566-3.3c.444-.787.876-1.577,1.281-2.379a45.317,45.317,0,0,1,6.4,4.917C331.593,233.767,330.888,234.023,330.193,234.293Zm-12.71,7.03c1.551-1.895,3.017-3.849,4.374-5.857a5.6,5.6,0,0,1,3.574,1A76.28,76.28,0,0,0,317.482,241.323Zm14.379,16.8c.91-.544,1.849-1.112,2.826-1.69-.747.883-1.552,1.734-2.382,2.566A2.447,2.447,0,0,0,331.861,258.118Zm-27.791,33.3A193.371,193.371,0,0,1,325.005,276.1c-5.257,4.314-10.427,8.73-15.343,13.453-2.3,2.206-4.592,4.526-6.788,6.959-2.79,2.037-5.664,3.961-8.638,5.721q-.908.537-1.865,1.074A79.933,79.933,0,0,1,304.07,291.415Zm11.725-63.91a7.717,7.717,0,0,0-1.859-.839c1.01.045,2.022.125,3.033.226C316.574,227.089,316.183,227.3,315.795,227.505ZM296.217,229.3a137.422,137.422,0,0,0-17.3,14.165A36.773,36.773,0,0,1,296.367,229.2Zm-2.686,22.594a85.17,85.17,0,0,0,6.434-5.608c2.948-2.314,5.867-4.646,8.576-7.114q2.018-.9,4.085-1.664a50.63,50.63,0,0,1-4.267,4.584,117.461,117.461,0,0,1-15.416,12.794c-1.031.744-2.078,1.464-3.124,2.186A38.429,38.429,0,0,1,293.53,251.893Zm7.788,20.622q5.554-4.973,11.582-9.4c3.119-1.786,6.3-3.54,9.574-5.109-6.44,4.156-12.623,8.724-18.6,13.491a163.5,163.5,0,0,0-14.411,12.74A143.724,143.724,0,0,1,301.318,272.515Zm130.885,16.8.015-.041c.614-1.777,1.141-3.6,1.615-5.435.13-.209.253-.419.379-.629q-.629,3.688-1.554,7.331A2.584,2.584,0,0,0,432.2,289.312Zm.135,2.476c-.317,1.179-.662,2.351-1.025,3.52a2.425,2.425,0,0,0-.869-1.345c.093-.232.2-.461.29-.693.419-.362.831-.731,1.255-1.09A2.078,2.078,0,0,0,432.339,291.788Zm-2.359-15.182c-6.815,1.3-12.869,5.29-18.376,9.526-.571.181-1.144.355-1.708.552a173.342,173.342,0,0,0,20.727-18.2c.083.175.167.354.247.526C430.673,271.592,430.383,274.134,429.98,276.606ZM309.515,330.25l-.111-.091a2.166,2.166,0,0,0,.412.042C309.716,330.216,309.616,330.239,309.515,330.25Zm15.089-20.1c-3.033,3.814-5.553,8.213-5.869,12.865a27.861,27.861,0,0,1-4.79,1.573,54.308,54.308,0,0,1,7.949-12.365C322.8,311.539,323.706,310.852,324.6,310.153Zm22.343-1.572a2.441,2.441,0,0,0,1.353.354q-2.361,1.838-4.646,3.777c-1.3.618-2.58,1.289-3.844,1.993C342.232,312.714,344.6,310.66,346.948,308.581Zm64.351-54.71c-5.8,7.1-13.728,12.6-21.217,17.623-2.465,1.654-4.968,3.253-7.484,4.831A255.021,255.021,0,0,1,402.764,259.8C405.123,258.09,408.075,255.879,411.3,253.872Zm-37.673,23.236q2.313-1.653,4.612-3.333h0q-1.251,1.122-2.5,2.247c-.55.5-1.112.977-1.669,1.466A2.314,2.314,0,0,0,373.626,277.108Zm-10.267,17.642c6.4-4.725,13.232-8.864,20.015-13.059-6.068,4.877-11.907,9.935-17.677,14.331-5.183,3.949-10.522,7.666-15.7,11.607q.692-1.577,1.491-3.076C355.34,301.15,359.227,297.8,363.359,294.749Zm13.607,7.588c9.577-5.921,19.562-11.618,28.6-18.349-10.181,7.866-20.891,15.142-31.064,22.878-6.74,5.125-12.8,11.118-19.449,16.366-1.088.858-2.293,1.821-3.585,2.812A298.927,298.927,0,0,1,376.966,302.337Zm25.549-22.313c.673-.59,1.335-1.189,2.014-1.772,1.319-1.134,2.705-2.32,4.138-3.511.7-.529,1.412-1.054,2.111-1.593.1-.077.2-.157.3-.233A101.543,101.543,0,0,1,402.515,280.025Zm-25.444,33.616a136.41,136.41,0,0,1,19.418-15.021c-3.85,3.256-7.728,6.482-11.793,9.52-2.692,2.011-5.476,4.043-8.29,6.116C376.63,314.054,376.848,313.844,377.071,313.641ZM352.7,341.1c9.634-11.37,23.189-20.419,34.41-28.842,6.839-5.133,13.383-10.5,19.846-16.092,2.035-1.76,4.218-3.677,6.524-5.535,1.118-.348,2.242-.674,3.379-.954a20.015,20.015,0,0,1-3.228,6.793,2.142,2.142,0,0,0-2.447-.041c-15.592,10.215-29.339,22.59-44.16,33.8C362.468,333.682,357.261,337.119,352.7,341.1Zm5.371,2.462c-1.756,1.586-4.26,3.929-7.085,6.106a37.183,37.183,0,0,1,3.6-3.894C355.759,345.045,356.921,344.313,358.075,343.565Zm33.273-7.605c1.214-1.384,2.439-2.74,3.64-4.069,3.419-3.778,7-7.408,10.537-11.073a64.477,64.477,0,0,0,9.621-10.5,1.989,1.989,0,0,0,.012-2.351q2.953-2.949,5.946-5.851c-6.266,11.477-15.027,21.937-24.311,30.936C394.978,334.027,393.159,334.989,391.348,335.959ZM421.55,285a31.084,31.084,0,0,1,7.4-3.14c-.039.17-.071.345-.111.515-1.436,1.992-3.136,3.869-4.605,5.6-.911,1.071-1.846,2.122-2.787,3.169a19.812,19.812,0,0,0,.712-4.543A2.123,2.123,0,0,0,421.55,285Zm3.417-21.088a34.394,34.394,0,0,1,3.371-1.257c.065.209.132.415.2.622a159.2,159.2,0,0,1-17.094,16.035,80.226,80.226,0,0,0,13.173-13.938A2.075,2.075,0,0,0,424.967,263.908Zm5.451-11.63c.041-.074.087-.145.128-.219.042.344.076.692.112,1.037C430.581,252.822,430.494,252.552,430.418,252.278Zm-5.217-.9c-.031.048-.061.1-.093.148a36.68,36.68,0,0,0-3.456-2.4,18.015,18.015,0,0,1,2.648-.447Q424.783,250.005,425.2,251.378Zm-5.613,1.915a31.323,31.323,0,0,1,2.88,2.077,64.168,64.168,0,0,1-6.7,7.505,60.377,60.377,0,0,0-11.345,4.5,61.753,61.753,0,0,0,13.98-14.783C418.8,252.815,419.195,253.044,419.589,253.293Zm-27.07,4.548q.843-.7,1.69-1.416,2.134-1.7,4.206-3.476c.266-.216.531-.433.8-.647.794-.306,1.583-.6,2.36-.865a28.233,28.233,0,0,1,3.387-.938c-.258.254-.521.5-.782.751A108.167,108.167,0,0,0,392.519,257.841ZM356.7,288.92a2.111,2.111,0,0,0,.266.068,62.5,62.5,0,0,0-5.732,6.831q-1.614,1.274-3.218,2.565c-6.859,5.534-14.053,11.74-19.609,18.968-1.3.942-2.632,1.844-3.991,2.686,1.878-5.523,7-10.409,10.845-14.125A172.144,172.144,0,0,1,356.7,288.92Zm-23.531,44.992a58.514,58.514,0,0,0,9.717-5.892c-1.584,1.86-3.108,3.771-4.55,5.738a16.778,16.778,0,0,1-5.375.931C333.024,334.43,333.087,334.169,333.166,333.912Zm3.327,13.856a24.8,24.8,0,0,1,2.4-5.912c3.263-2.367,6.437-4.858,9.7-7.218,1.6-1.032,3.129-2.041,4.521-3.047q-4.68,5.7-8.875,11.722a22.44,22.44,0,0,0-7.89,5.1C336.392,348.2,336.439,347.982,336.492,347.769Zm42.716,11.05a17.288,17.288,0,0,0,1.816.238,45.207,45.207,0,0,1-5.85,3.769A51.988,51.988,0,0,1,379.208,358.819Zm10.186,7.611c-1.192,1.109-2.407,2.192-3.669,3.207a17.609,17.609,0,0,1-5.158,3.105A54.106,54.106,0,0,0,389.394,366.43Zm5.453-22.558c-.211.061-.421.113-.632.175,1.265-1.021,2.512-2.067,3.759-3.121Q396.4,342.387,394.847,343.872Zm20.9-105.988a32.949,32.949,0,0,0-3.6,1.095c.384-.477.777-.942,1.152-1.429a1.938,1.938,0,0,0,.376-1.4c.539.232,1.073.487,1.6.774a16.137,16.137,0,0,1,1.5.938A2.5,2.5,0,0,0,415.751,237.884Zm-10.838-2.617c-.408.573-.818,1.144-1.252,1.7-15.87,8.511-27.928,22.3-41.221,34.392l-1.219.858c-10.736,7.572-20.855,15.946-31.325,23.876Q320.88,302.93,311.45,309.2c-2.364,1.564-5.237,3.994-8.292,6.025q1.247-1.592,2.629-3.1c2.006-1.3,3.9-2.652,5.633-3.9,9.148-6.6,17.348-14.349,25.652-21.946,2.991-2.22,5.971-4.451,8.9-6.751,3.756-2.952,7.395-6.037,10.981-9.18,12.335-8.864,25.242-17.6,34.315-29.247.693-.484,1.395-.955,2.1-1.421A40.362,40.362,0,0,1,404.913,235.267ZM371.83,247.831c.48-.36.977-.7,1.466-1.047-.1.129-.2.251-.3.378C372.607,247.385,372.223,247.617,371.83,247.831Zm7.5-4.948c1.172-.686,2.354-1.355,3.553-1.986q-1.647,1.1-3.3,2.191A2.4,2.4,0,0,0,379.334,242.883Zm-18.153,14.283a33.855,33.855,0,0,0,3.886-1.067,144.888,144.888,0,0,1-18.991,15.554c-4.666,3.273-9.637,6.144-14.589,9.027,3.739-3.727,7.494-7.437,11.439-10.947a2.06,2.06,0,0,0,.6-2.167c5.122-4.146,9.893-8.623,14.618-13.163A2.461,2.461,0,0,0,361.181,257.165ZM343.5,252.152c.031-.062.057-.128.087-.19.418-.152.836-.291,1.255-.422q-.528.865-1.128,1.695c-.012-.077-.013-.157-.026-.235A6.6,6.6,0,0,0,343.5,252.152Zm7.571-5.629a2.32,2.32,0,0,0-1.858-.845,22.959,22.959,0,0,0-4.352.748,2.662,2.662,0,0,0-1.618-1.373,12.922,12.922,0,0,0-5.115-.381c.8-.89,1.642-1.741,2.509-2.576.756.832,1.5,1.656,2.241,2.457,1.529,1.661,4.886-.07,3.969-2.3a24.814,24.814,0,0,0-2.008-3.839c.239-.188.47-.386.71-.573a52.056,52.056,0,0,1,6.827,5.924Q351.682,245.1,351.075,246.523Zm-75.086,7.092c.14-.129.284-.254.422-.383q.878-.359,1.744-.751c-1.626,1.361-3.19,2.779-4.713,4.226.013-.117.033-.236.048-.354Q274.731,254.962,275.989,253.615Zm-3.189,22.04c-.013-.871-.02-1.741-.028-2.612,1.13-.541,2.223-1.121,3.251-1.674a2.343,2.343,0,0,0,.927.126c-1.165,1.231-2.3,2.48-3.36,3.769C273.331,275.4,273.063,275.522,272.8,275.655Zm14,18.98c.677-.268,1.35-.549,2.009-.854-.975.668-1.952,1.337-2.947,1.98C286.188,295.366,286.5,294.993,286.8,294.635Zm6.144,15.544c-.6,1.109-1.165,2.237-1.674,3.385-.517.1-1.031.164-1.543.212-.648-.673-1.284-1.354-1.9-2.057A38.229,38.229,0,0,0,292.944,310.179Zm9.737,14.806c.479-.27.948-.555,1.424-.829-.245.454-.483.912-.711,1.376Zm4.8,3.271a2.6,2.6,0,0,0,.237.6l-.389-.3C307.373,328.453,307.429,328.356,307.477,328.255Zm12.871,12.052a43.116,43.116,0,0,1,3.775-4.127,19.093,19.093,0,0,0,3.392-.378c-.064.377-.134.752-.179,1.135a2.546,2.546,0,0,0,1.9,2.488,16.97,16.97,0,0,0,4.174.315,78.383,78.383,0,0,1-8.557,5.393C323.355,343.5,321.86,341.893,320.347,340.307Zm21.478,19.635c-.205-.083-.4-.178-.606-.27.141-.026.281-.046.421-.078A2.338,2.338,0,0,0,341.826,359.942ZM414.17,228.9a42.545,42.545,0,0,1,7.689,4.909,56.316,56.316,0,0,0-8.169-3.843c.15-.333.314-.657.457-.994C414.155,228.944,414.161,228.92,414.17,228.9Zm-9.819-3.372a38.647,38.647,0,0,1,4.3,1.124c-.879.284-1.747.6-2.608.922-2.088-.523-4.2-.954-6.32-1.3.076-.2.162-.387.236-.586Q402.148,225.512,404.351,225.524Zm-14.594-5.613a2.266,2.266,0,0,0,.729-.529l.6.036,2.091.12c-1.175.081-2.334.226-3.486.4Zm-26.782,7.224a79.445,79.445,0,0,1,9.947-4.065,69.8,69.8,0,0,0-11.15,8.446A5.814,5.814,0,0,1,362.975,227.134Zm-1.708,12.458a2.917,2.917,0,0,0,1.373-.415c-1.527,1.553-3.005,3.158-4.444,4.8A39.8,39.8,0,0,1,361.267,239.592Zm-5.3-8.693a13.094,13.094,0,0,0,1.508,5.207,44.8,44.8,0,0,0-3.223,4.427c-1.243-1.282-2.58-2.482-3.957-3.643a2.08,2.08,0,0,0,.393-1.882c-.058-.23-.134-.448-.2-.674C352.3,233.133,354.124,231.976,355.963,230.9Zm-17.985-8.269a39.832,39.832,0,0,0-4.066-2.056c-5.4-3.782-12.233-5.655-19.283-6C323.261,214.693,331.782,217.309,337.977,222.63Zm-22.411-3.679a2.173,2.173,0,0,0-.3.533,35.607,35.607,0,0,0-7.708-.315A46.068,46.068,0,0,1,315.566,218.951Zm-42.26,83.422c-.191-.487-.364-.977-.542-1.467.3-.557.635-1.1.949-1.627.106-.178.221-.349.331-.525A16.078,16.078,0,0,0,273.306,302.372Zm8.7,10.8q-.474-.4-.949-.813c.255-.013.508-.025.763-.049.013.019.019.038.032.057.087.119.179.236.268.357C282.082,312.875,282.041,313.026,282.007,313.175Zm-.642-5.86a4.289,4.289,0,0,1-1.162-.473,66.581,66.581,0,0,0,5.886-3.658c-.049.252-.111.5-.151.754-.566.923-1.108,1.859-1.584,2.821A19.011,19.011,0,0,1,281.364,307.316Zm4.311,15.643c.952.932,1.891,1.879,2.8,2.862,4.113,4.449,8.131,8.977,12.33,13.3A156.364,156.364,0,0,1,285.676,322.958Zm36.648,28.4c.413-.142.826-.3,1.235-.458q.649.735,1.3,1.463a20.867,20.867,0,0,0-.719,3.785,1.874,1.874,0,0,0,.213,1.07c-1.334-.834-2.663-1.685-3.979-2.566A2.68,2.68,0,0,0,322.323,351.354ZM348.73,369a102.62,102.62,0,0,1-18.113-8.094c-1.339-.739-2.673-1.516-4-2.309a16.91,16.91,0,0,0,4.315-.058c1.176,1.066,2.4,2.092,3.689,3.049a21.905,21.905,0,0,0,15.705,4.346Q349.482,367.434,348.73,369Zm-1.185-7.881a25.756,25.756,0,0,0,7.424-2.191c-.347.46-.711.906-1.045,1.373A22.371,22.371,0,0,1,347.544,361.116Zm11.059,4.916a3.311,3.311,0,0,0-.036,1.061,20.121,20.121,0,0,1-4,1.08q1-1.774,2.126-3.466,1.23-.348,2.468-.767A21.347,21.347,0,0,0,358.6,366.032Zm6.381,5.561a40.018,40.018,0,0,1-4.465-.136c.941-.38,1.867-.809,2.778-1.279a17.805,17.805,0,0,0,8-.312,14.4,14.4,0,0,0,1.441.319A26.754,26.754,0,0,1,364.985,371.594ZM448.9,285.131c-2.311,21.86-17.824,36.149-31.236,51.965q1.5-2.54,2.947-5.106c9.673-11.025,18.589-23.336,25.169-36.224,1.207-2.367-1.864-5.039-3.822-2.936-.185.2-.364.407-.549.607.53-1.228,1.048-2.462,1.537-3.71a81.431,81.431,0,0,0,5.635-23.717A81.486,81.486,0,0,1,448.9,285.131Z" fill="#8fcfe6"/>
        </g>
      </g>
      <g id="Group_9" data-name="Group 9">
        <path id="Path_85" data-name="Path 85" d="M126.328,345.155c-4.126-3.369-9.781,1.99-13.973,7.52a28.984,28.984,0,0,1-1-2.913,11.574,11.574,0,0,0-2.164-6.435,4.562,4.562,0,0,0-.611-.635c-1.376-1.689-3.145-3.671-5.34-3.807-2.115-.13-3.189,1.327-3.6,3.629a10.273,10.273,0,0,0-2.065.754c-8.332,4.019.684,20.415,6.837,23.99a6.964,6.964,0,0,0,8.4,2.328C119.12,367.272,134.886,352.147,126.328,345.155Zm-26.807,1.793c.089,1.253.252,2.579.475,3.935a33.432,33.432,0,0,0,.237,4.691C98.674,352.043,97.949,348.412,99.521,346.948Zm13.015,13.032q.513-.794,1.056-1.572a5.715,5.715,0,0,0,1.552-.154c.143-.036.293-.08.45-.133a35.823,35.823,0,0,1-3.155,2.037C112.47,360.1,112.505,360.039,112.536,359.98Zm-2.239,5.874c1.874-1.1,3.937-2.256,5.911-3.561A13.315,13.315,0,0,1,110.3,365.854Zm8.934-11.275a30.166,30.166,0,0,0-3.209.634c.611-.745,1.246-1.467,1.9-2.172a5.1,5.1,0,0,1,2.44-.861A7.972,7.972,0,0,1,119.23,354.58Z" fill="#ed918e"/>
        <path id="Path_86" data-name="Path 86" d="M130.319,340.741c-5.438-3.671-12.357-1.3-17.445,2.122a12.716,12.716,0,0,0-7-7.321c-8.321-3.2-12.167,7.073-12.632,13.313-.678,9.109,2.36,19.518,11.384,23.523,9.513,4.225,19.316-3.592,24.445-10.873C132.689,356.376,137.182,345.372,130.319,340.741Zm-18.493,8.643c.121,1.872.347,3.736.323,5.626-.02,1.669-3.337,10.092-3.844,4.52a14.729,14.729,0,0,1,.684-5.039A12.975,12.975,0,0,1,111.825,349.384Zm10.071,14.88c-4.822,4.855-12.469,7.378-18.367,2.947-4.828-3.627-6.416-10.258-6.451-15.947-.028-4.81,1.24-13.471,7.891-12.1,2.57.528,4.34,2.714,5.531,5.494a19.974,19.974,0,0,0-6.316,10.106c-.734,2.754-1.319,9.194,1.992,10.815,9.306,4.554,11.987-13.264,8.664-19a21.319,21.319,0,0,1,4.851-2.781c3.343-1.338,8.562-1.761,10.091,2.315C132.041,352.131,125.746,360.39,121.9,364.264Z" fill="#3e251c"/>
      </g>
      <g id="Group_10" data-name="Group 10">
        <path id="Path_87" data-name="Path 87" d="M453.074,215.525c-3.5,6.8-9.154,11.838-13.476,18.058-1.485,2.14,2.028,4.165,3.494,2.034,4.215-6.137,10.168-11.828,11.905-19.284C455.258,215.212,453.638,214.43,453.074,215.525Z" fill="#e7674c"/>
        <path id="Path_88" data-name="Path 88" d="M468.113,221.683c-.111-1.029-1.591-1.711-2.158-.581a50.13,50.13,0,0,0-2.75,6.7c-.775,2.367,2.937,3.356,3.724,1.022A18.471,18.471,0,0,0,468.113,221.683Z" fill="#e7674c"/>
        <path id="Path_89" data-name="Path 89" d="M484.3,221.727a1.1,1.1,0,0,0-2.1,0c-1.743,9.638.256,20.04.629,29.763a2.083,2.083,0,0,0,4.163,0A141.176,141.176,0,0,0,484.3,221.727Z" fill="#e7674c"/>
        <path id="Path_90" data-name="Path 90" d="M495.138,219.791a46.006,46.006,0,0,0-2.217-4.525,1.573,1.573,0,0,0-2.864,1.2c.456,1.447.951,2.883,1.389,4.336.511,1.7.507,3.343,2.359,4.061a1.538,1.538,0,0,0,1.548-.407C496.636,222.913,495.831,221.44,495.138,219.791Z" fill="#e7674c"/>
        <path id="Path_91" data-name="Path 91" d="M522.976,227.256c-2.66-5.048-6.841-8.722-10.8-12.723-2.108-2.13-5.792-6.456-9.253-5.484a1.09,1.09,0,0,0-.261,1.979c2.894,1.7,4.956,4.572,7.224,6.978,3.446,3.652,7.041,6.882,9.477,11.353C520.652,231.726,524.228,229.629,522.976,227.256Z" fill="#e7674c"/>
        <path id="Path_92" data-name="Path 92" d="M519.064,204.082c-.881-1.379-2.363-1.247-3.831-1.572-1.487-.331-2.909-.864-4.422-1.068-.914-.123-2,1.029-1.047,1.79a15.953,15.953,0,0,0,4.1,2.308c1.645.655,3.472,1.561,4.978.249A1.4,1.4,0,0,0,519.064,204.082Z" fill="#e7674c"/>
        <path id="Path_93" data-name="Path 93" d="M536.8,193.054c-6.94-.668-15.439-2.966-22.261-.974a1.169,1.169,0,0,0,.31,2.286c7.044.942,14.835,2.705,21.951,2.3A1.805,1.805,0,0,0,536.8,193.054Z" fill="#e7674c"/>
        <path id="Path_94" data-name="Path 94" d="M530.221,179.158a23.6,23.6,0,0,0-5.642-.087c-1.912.035-3.836-.217-5.739-.048a.939.939,0,0,0-.472,1.735,10.454,10.454,0,0,0,5.461,1.466,21.645,21.645,0,0,0,6.392-.148A1.522,1.522,0,0,0,530.221,179.158Z" fill="#e7674c"/>
        <path id="Path_95" data-name="Path 95" d="M558.871,162.762c-2.362-.562-4.7.39-7,.974-3.774.957-7.516,2.027-11.288,2.994-7.692,1.976-15.159,4.243-22.965,5.783-.875.173-.753,1.4,0,1.638,6.811,2.166,14.75-1.042,21.331-2.8,3.707-.989,7.433-1.9,11.145-2.873,2.87-.749,6.713-.957,9.183-2.631A1.7,1.7,0,0,0,558.871,162.762Z" fill="#e7674c"/>
        <path id="Path_96" data-name="Path 96" d="M521.98,159.961c-.791.445-1.476,1.019-2.3,1.428-.868.431-1.808.7-2.643,1.2a.938.938,0,0,0,.224,1.7,8.851,8.851,0,0,0,6.76-1.7C525.489,161.3,523.611,159.049,521.98,159.961Z" fill="#e7674c"/>
        <path id="Path_97" data-name="Path 97" d="M546.619,135.117c-6.989,2.072-13.986,6.908-20.283,10.535a89.082,89.082,0,0,0-7.716,5.27c-1.744,1.264-4.027,1.963-5.566,3.4a.188.188,0,0,0-.029.226c2.219,3.811,9.481-1.86,11.6-3.182,3.72-2.322,7.7-4.319,11.583-6.35,4.053-2.118,8.724-3.833,12.218-6.806C549.867,136.985,548.335,134.607,546.619,135.117Z" fill="#e7674c"/>
        <path id="Path_98" data-name="Path 98" d="M514.309,140.713c-2.7,1.606-5.894,3.63-7.654,6.276-.625.935.546,1.757,1.39,1.386a33.417,33.417,0,0,0,3.749-2.15c1.412-.855,2.877-1.637,4.262-2.536C517.912,142.483,516.238,139.564,514.309,140.713Z" fill="#e7674c"/>
        <path id="Path_99" data-name="Path 99" d="M526.5,122.2a1.748,1.748,0,0,0-2.893-.761c-3.285,3.923-6.208,7.833-10.042,11.4-3.743,3.488-8.04,6.46-11.681,10.019a.465.465,0,0,0,.095.731c3.863,1.695,10.746-5.563,13.248-7.7a106.078,106.078,0,0,0,8.506-8.234C525.062,126.244,527.121,124.33,526.5,122.2Z" fill="#e7674c"/>
        <path id="Path_100" data-name="Path 100" d="M498.265,134.637a30.27,30.27,0,0,1-3.162,5.45c-.505.731.325,1.447,1.029,1.334,2.592-.41,4.837-2.92,5.553-5.347C502.272,134.088,499.1,132.667,498.265,134.637Z" fill="#e7674c"/>
        <path id="Path_101" data-name="Path 101" d="M499.094,113.18a1.772,1.772,0,0,0-2.414,0c-.949.806-.922,2.137-1.185,3.263a42.807,42.807,0,0,1-2.5,7c-1.035,2.408-2.21,4.774-3.439,7.089-.821,1.547-1.623,3.9-2.89,5.131a.82.82,0,0,0,.993,1.28c4.419-2.344,6.677-7.166,8.746-11.515C497.507,123.111,501.94,115.41,499.094,113.18Z" fill="#e7674c"/>
        <path id="Path_102" data-name="Path 102" d="M479.423,128.949a1.507,1.507,0,0,0-1.278-.167,1.717,1.717,0,0,0-1.216,1.59,30.676,30.676,0,0,1-.565,4.958.939.939,0,0,0,1.709.718,13.021,13.021,0,0,0,2.171-5.676A1.593,1.593,0,0,0,479.423,128.949Z" fill="#e7674c"/>
        <path id="Path_103" data-name="Path 103" d="M468.286,111.841a1.563,1.563,0,0,0-1.344.767c-.593,1.245-.291,2.322-.243,3.663a71.012,71.012,0,0,1-.328,7.628c-.293,3.984-1.858,9.744-.444,13.616a1.078,1.078,0,0,0,1.945.254C469.717,134.661,473.826,111.455,468.286,111.841Z" fill="#e7674c"/>
        <path id="Path_104" data-name="Path 104" d="M450.844,131.519c-1.178-1.467-3.854.11-3.189,1.848.559,1.457,1.366,2.834,2.018,4.252a18.461,18.461,0,0,1,1.644,4.2c.2,1.229,1.952.807,2.046-.275C453.632,138.359,452.908,134.087,450.844,131.519Z" fill="#e7674c"/>
        <path id="Path_105" data-name="Path 105" d="M439,148.843a96.5,96.5,0,0,1-8.609-7.617c-2.554-2.636-4.669-6.606-7.848-8.471a.979.979,0,0,0-1.46.835c.128,3.687,3.206,7.1,5.429,9.847a44.437,44.437,0,0,0,9.666,9.045C438.362,153.936,441.051,150.51,439,148.843Z" fill="#e7674c"/>
        <path id="Path_106" data-name="Path 106" d="M431.2,159.368a13.173,13.173,0,0,0-4.748-3.084,1.548,1.548,0,0,0-1.5,2.569,19.3,19.3,0,0,0,3.85,2.32,15.346,15.346,0,0,1,3.7,3.081.754.754,0,0,0,1.278-.526A6.529,6.529,0,0,0,431.2,159.368Z" fill="#e7674c"/>
        <path id="Path_107" data-name="Path 107" d="M429.446,175.62c-4.2-2.205-9.129-3.021-13.8-3.637-6.086-.8-12.74-1.808-18.869-1.251a1.608,1.608,0,0,0,0,3.214c5.086.515,10.263.252,15.382.732,5.667.529,11.22,2.024,16.88,2.438A.807.807,0,0,0,429.446,175.62Z" fill="#e7674c"/>
        <path id="Path_108" data-name="Path 108" d="M427.2,186.162c-1.558-.712-3.327-.333-4.956-.035a11.524,11.524,0,0,0-5.617,2.662c-1.947,1.744.984,4.69,2.877,2.866a13.717,13.717,0,0,1,4-2.553,31.753,31.753,0,0,0,3.7-1.432A.878.878,0,0,0,427.2,186.162Z" fill="#e7674c"/>
        <path id="Path_109" data-name="Path 109" d="M432.7,197.976c-4.709-.087-9.983,2.325-14.171,4.226-4.489,2.038-10.055,4.214-13.414,7.984a2.206,2.206,0,0,0,0,3.075,2.292,2.292,0,0,0,.964.56,2.121,2.121,0,0,0,2.124-.56c2.753-3.294,7.475-5.3,11.225-7.194,4.337-2.195,8.826-4.606,13.587-5.758A1.192,1.192,0,0,0,432.7,197.976Z" fill="#e7674c"/>
        <path id="Path_110" data-name="Path 110" d="M439.017,205.309a9.618,9.618,0,0,0-4.551,1.6c-1.377.955-3.235,2.589-2.248,4.423a1.807,1.807,0,0,0,2.417.631c.8-.346,1.353-1.635,2-2.257a14.021,14.021,0,0,1,2.961-2.27C440.549,206.913,440.175,205.2,439.017,205.309Z" fill="#e7674c"/>
        <path id="Path_111" data-name="Path 111" d="M509.9,165.778a23.994,23.994,0,0,0-7.938-9.838,31.567,31.567,0,0,0-8.581-6.751,1.866,1.866,0,0,0-.157-.42c-3.873-7.285-15.1-7.985-22.32-6.754a29.655,29.655,0,0,0-17.918,10.258c-9.327,7.238-15.558,18.657-15.551,30.56,0,8.668,5.517,16.759,11.862,22.991-.134.29-.278.571-.4.871a2.461,2.461,0,0,0,1.137,2.786,11.309,11.309,0,0,0,5.4,1.664c8.548,6.459,20.054,7.151,30.094,4.316C505.586,209.794,518.344,184.965,509.9,165.778Zm-21.458,33.351c-.17.07-.352.151-.531.229v0c-.082.036-.164.072-.246.112-.063.026-.125.055-.188.084-2.292,1.041-4.765,1.947-6.97,3.191-.208.057-.413.113-.622.165a99.035,99.035,0,0,0,10.314-6.331c.282.216.566.426.852.639A29.952,29.952,0,0,1,488.442,199.128Zm-33.918-27.1c.368-.687,2.749.288,4.343,1.038-1.508.9-3.036,1.76-4.591,2.554A5.372,5.372,0,0,1,454.524,172.026Zm10.956-4.369c-.191-1.68,2.1-1.908,4.591-1.669-1.44.887-2.87,1.8-4.3,2.721A4.031,4.031,0,0,1,465.48,167.656Zm-4.215,22.355c2.9-2.193,5.774-4.4,8.632-6.651.66-.52,1.332-1.045,2.008-1.572,1.428,1.095,2.839,2.124,4.128,3.091-1.893,1.24-3.78,2.45-5.688,3.539-2.412,1.374-4.966,2.744-7.465,4.233Q462.057,191.342,461.266,190.011Zm18.278-20.934c.208-.1.425-.194.641-.291.347.167.693.331,1.028.51.051.078.1.158.151.235a100.18,100.18,0,0,0-9.36,6.195q-1.018-.926-2-1.89C473.146,172.194,476.314,170.6,479.543,169.077Zm-.384,12.376c-.9-.71-1.813-1.451-2.746-2.2,3.245-1.641,6.533-3.2,9.823-4.762,1.121.841,2.3,1.631,3.529,2.38a64.173,64.173,0,0,0-9.669,5.349C479.784,181.964,479.474,181.7,479.159,181.453Zm-21.471,11.319q.6.985,1.206,1.961c.067.112.15.209.22.318-.872.6-1.725,1.224-2.544,1.879-.577-.5-1.118-1.025-1.631-1.558A23.642,23.642,0,0,1,457.688,192.773Zm5.11,6.969q1.059,1.157,2.166,2.27a26.808,26.808,0,0,1-3.586-1.676C461.857,200.146,462.328,199.948,462.8,199.742Zm3.876-1.9c2.312-1.231,4.54-2.553,6.645-3.739,2.787-1.57,5.661-2.985,8.541-4.39q1.227,1.055,2.465,2.1a70.686,70.686,0,0,0-7.692,3.875,30.189,30.189,0,0,0-6.983,5.186C468.622,199.894,467.619,198.892,466.674,197.844Zm31.181-23.177c-.507.057-1.01.119-1.505.206-1.355-1.076-2.682-2.189-4.011-3.3.645-.312,1.286-.631,1.929-.947.454.258.9.528,1.337.807C496.347,172.552,497.091,173.637,497.855,174.667ZM476.182,162.53c-.412-.112-.823-.222-1.229-.326a19.723,19.723,0,0,0-9.1-.033,27.278,27.278,0,0,1,16.4-2.234A47.933,47.933,0,0,0,476.182,162.53Zm-14.966,6.583a27.268,27.268,0,0,0-3.975-1.387,37.077,37.077,0,0,1,5-3.643A4.946,4.946,0,0,0,461.216,169.113Zm1.977,8.366c.606-.335,1.216-.66,1.823-.99.853.541,1.69,1.1,2.519,1.677l.23.212c-3.159,1.779-6.416,3.887-9.8,5.722-.44-.823-1.041-1.9-1.647-3.105C458.8,179.682,461.261,178.541,463.193,177.48Zm39.051,1.49q-.66-.461-1.392-.916a2.373,2.373,0,0,0,.119-1.543,2.734,2.734,0,0,0,.281-.07,14.116,14.116,0,0,1,.814,1.173c.1.309.182.619.266.929C502.3,178.686,502.277,178.828,502.245,178.97Zm-49.7,4.214q.655,1.468,1.385,2.9-.961.422-1.939.784-.269-1.52-.384-3.059C451.915,183.6,452.231,183.39,452.549,183.184Zm-3.758,12.562-.006.01c-.7-.935-1.408-1.828-2.133-2.636.112-.013.223-.036.335-.052A31.111,31.111,0,0,0,448.791,195.746Zm46.054-2.246c-.092-.083-.188-.162-.281-.244,1.441-1.706-.761-4.174-2.793-3.782-.524.1-1.048.228-1.57.357-1.187-.851-2.372-1.679-3.507-2.5a79.894,79.894,0,0,0,10.534-6.161c.076.046.157.091.233.136.938.658,1.9,1.293,2.891,1.879a2.954,2.954,0,0,0,.518.236,35.592,35.592,0,0,1-2.452,5.086A33.184,33.184,0,0,1,494.845,193.5ZM470.7,154.23c-1.519.62-3.014,1.3-4.495,2.008A35.983,35.983,0,0,0,461,158.684a26.051,26.051,0,0,1,2.215-2.037A22.973,22.973,0,0,1,470.7,154.23Zm24.227,5.9a32.07,32.07,0,0,0-3.219-2.088q-.847-.955-1.744-1.843c.585.109,1.159.244,1.725.4A26.466,26.466,0,0,1,494.93,160.134Zm-52.2,24.437a3.663,3.663,0,0,0,.459-.041c.121-.019.239-.046.357-.067.023.107.055.213.079.32-.253.312-.489.631-.718.957C442.836,185.35,442.774,184.962,442.728,184.57Zm30.8,27.506a12.641,12.641,0,0,0,2.22-.86,1.776,1.776,0,0,0,.266-.178,2.055,2.055,0,0,0,.837.377,16.729,16.729,0,0,0,3.276.268A31.777,31.777,0,0,1,473.527,212.076Zm-23.289-41.812-1.07,1.253a1.171,1.171,0,0,0,1.134,1.941c10.369-1.774,22.691-9.228,28.813-17.79,1.048-1.466-.965-3.263-2.4-2.393-8.209,4.961-18.527,8.662-22.87,17.874a1.723,1.723,0,0,0,1.926,2.5c10.971-1.615,20.8-9.31,29.652-15.445,1.2-.835.962-3.294-.836-3.082-8.852,1.042-17.244,6.414-24.172,11.67-6.214,4.716-13.744,11.48-14.347,19.789a1.605,1.605,0,0,0,2.022,1.535c15.126-4.781,27.519-14.944,42.217-20.621,1.772-.684,1.111-3.418-.8-2.894-12.135,3.334-28.04,9.193-35.148,20.234-.793,1.231.507,2.353,1.689,2.191,15.883-2.18,28.554-13.22,42.926-19.368q-.751-1.276-1.5-2.554c-15.563,9.071-31.543,17.6-45.517,29.063-1.3,1.063.379,3.124,1.769,2.28a213.122,213.122,0,0,1,22.384-11.491c3.716-1.689,7.5-3.256,11.154-5.07,3.791-1.882,6.869-4.475,11.292-4.787l-1.245-2.157c-2.784,6.327-11.528,9.706-17.17,13.042-7.162,4.233-15.156,9.038-20.53,15.47a1.457,1.457,0,0,0,1.763,2.275c7.355-3.313,15.054-5.789,22.289-9.375,6.868-3.405,13.045-10.64,20.878-11.617q-.629-1.092-1.259-2.186c-2.5,3.529-5.984,5.921-9.455,8.419a1.457,1.457,0,0,0,1.475,2.512c2.577-1.11,9.48-7.3,3.812-9.458-3.184-1.215-6.558.429-9.436,1.743-5.811,2.652-10.976,6.628-16.461,9.86a1.434,1.434,0,0,0,1.452,2.472c4.5-2.67,8.8-5.657,13.334-8.284,2.8-1.624,6.3-3.816,9.7-3.305,2.216.333-3.365,4.245-3.873,4.461l1.475,2.512c3.892-2.8,7.7-5.512,10.5-9.464a1.462,1.462,0,0,0-1.262-2.188c-7.517.939-13.079,6.541-19.307,10.35-7.855,4.8-16.968,7.282-25.328,11.048q.88,1.137,1.76,2.273c5.65-6.766,14.261-11.741,21.857-16.144,5.563-3.226,13.53-6.709,16.275-12.968.4-.9-.038-2.243-1.242-2.157a20.634,20.634,0,0,0-8.915,2.991c-3.829,2.144-7.679,4-11.688,5.8a250.014,250.014,0,0,0-25.7,12.911q.884,1.139,1.767,2.282c13.865-11.2,29.6-19.622,44.954-28.562,1.7-.99.211-3.287-1.5-2.554-14.142,6.041-26.606,16.911-42.221,19.048q.845,1.094,1.689,2.189c6.625-10.276,22.1-15.757,33.366-18.845q-.4-1.446-.8-2.894c-14.613,5.637-27.019,16.421-42.263,20.445q1.009.768,2.021,1.534c.948-7.82,8.95-14.12,14.855-18.445,5.812-4.258,13.146-8.845,20.468-9.707q-.422-1.54-.839-3.081c-8.645,5.993-18.173,13.506-28.885,15.022q.963,1.25,1.928,2.5c4.152-8.652,14.05-11.776,21.7-16.569q-1.2-1.2-2.4-2.393c-5.588,8.088-17.118,14.532-26.4,17.316L451,172.925q.456-.687.911-1.376c.66-1-.887-2.2-1.671-1.284Z" fill="#ffe659"/>
        <path id="Path_112" data-name="Path 112" d="M463.224,214.4a37.108,37.108,0,1,0-23.377-47.007A37.285,37.285,0,0,0,463.224,214.4Z" fill="none" stroke="#492a20" stroke-linecap="round" stroke-linejoin="round" stroke-width="5.983"/>
        <path id="Path_113" data-name="Path 113" d="M459.571,169.751a2.414,2.414,0,1,0,2.424,2.412A2.44,2.44,0,0,0,459.571,169.751Z" fill="#3e251c"/>
        <path id="Path_114" data-name="Path 114" d="M486.452,173.767a2.558,2.558,0,1,0,2.57,2.557A2.586,2.586,0,0,0,486.452,173.767Z" fill="#3e251c"/>
        <path id="Path_115" data-name="Path 115" d="M465.625,173.332s-.665,5.3,6.319,6.624,9.148-4.14,9.148-4.14" fill="none" stroke="#492a20" stroke-linecap="round" stroke-linejoin="round" stroke-width="4.487"/>
        <path id="Path_116" data-name="Path 116" d="M460.264,178.119a6.568,6.568,0,0,0-8.481-2.711c-2.546,1.2-3.27,4.636-2.469,7.111a6.38,6.38,0,0,0,.392,1.279c1.351,3.182,5.441,3.975,8.327,2.749C461.366,185.13,461.877,180.945,460.264,178.119Z" fill="#e76c73"/>
        <path id="Path_117" data-name="Path 117" d="M493.721,183.844c-1.715-2.694-5.1-3.321-7.925-2.34a7.41,7.41,0,0,0-3.065,1.387,4.557,4.557,0,0,0-1.581,3.977,5.045,5.045,0,0,0,1,3.636l0,.01a7.044,7.044,0,0,0,8.953,2.839A6.706,6.706,0,0,0,493.721,183.844Z" fill="#e76c73"/>
        <path id="Path_118" data-name="Path 118" d="M515.556,141.709a19.506,19.506,0,0,0-4.331,3.1c-1.341,1.153-2.8,2.111-4.183,3.2a.223.223,0,0,0,.1.37c1.479.412,3.171-.915,4.26-1.731,1.7-1.266,3.248-2.667,4.851-4.04C516.776,142.154,516.11,141.448,515.556,141.709Z" fill="#3e251c"/>
        <path id="Path_119" data-name="Path 119" d="M543.966,136.741c-10,5.3-20.2,11.009-28.941,18.22-.194.159.063.491.268.346,9.424-6.559,19.681-11.3,29.642-16.918C546.013,137.78,545.055,136.164,543.966,136.741Z" fill="#3e251c"/>
        <path id="Path_120" data-name="Path 120" d="M523.913,159.519c-2.417.375-4.634,1.8-6.83,2.823-.935.433-.216,1.669.649,1.531,2.4-.377,4.72-1.635,6.9-2.652C525.674,160.737,524.876,159.368,523.913,159.519Z" fill="#3e251c"/>
        <path id="Path_121" data-name="Path 121" d="M558.925,165.805c-7.251,1.042-14.52,2.856-21.7,4.34-6.443,1.331-13.478,2.254-19.5,4.983a.222.222,0,0,0,.112.412c6.627-.647,13.249-2.643,19.8-3.879,7.155-1.351,14.692-2.378,21.6-4.71A.6.6,0,0,0,558.925,165.805Z" fill="#3e251c"/>
        <path id="Path_122" data-name="Path 122" d="M530.376,179.137a15.631,15.631,0,0,0-4.608.217,37.819,37.819,0,0,1-5.6.3.632.632,0,0,0-.169,1.235,16.179,16.179,0,0,0,10.374-.117C531.069,180.508,531.3,179.283,530.376,179.137Z" fill="#3e251c"/>
        <path id="Path_123" data-name="Path 123" d="M539.461,194.317c-8.532.5-16.834-2.365-25.277-1.666-.233.017-.323.4-.06.433,7.762,1.068,17.8,5.31,25.569,2.947C540.613,195.752,540.479,194.257,539.461,194.317Z" fill="#3e251c"/>
        <path id="Path_124" data-name="Path 124" d="M519.486,203.267a10.122,10.122,0,0,0-3.994-1.437,20,20,0,0,0-3.969-.681.667.667,0,0,0-.336,1.237,16.121,16.121,0,0,0,3.767,1.4,10.119,10.119,0,0,0,4.384.613C519.934,204.307,519.856,203.54,519.486,203.267Z" fill="#3e251c"/>
        <path id="Path_125" data-name="Path 125" d="M522.973,228.032c-2.251-3.568-6.02-6.651-8.9-9.755a32.028,32.028,0,0,0-10.13-7.873.793.793,0,0,0-.8,1.367,68.871,68.871,0,0,1,10.177,8.965c2.66,2.688,5.391,6.482,8.906,8.045C522.685,228.987,523.293,228.539,522.973,228.032Z" fill="#3e251c"/>
        <path id="Path_126" data-name="Path 126" d="M494.212,220.911c-.777-1.564-.952-3.311-2.238-4.6a.579.579,0,0,0-.98.4,12.275,12.275,0,0,0,.859,4.774c.384.926,1.532,3.079,2.871,2.369C495.852,223.261,494.559,221.611,494.212,220.911Z" fill="#3e251c"/>
        <path id="Path_127" data-name="Path 127" d="M482.757,236.256c-.073-4.907.178-9.889-.491-14.758-.095-.689-1.223-.649-1.354,0-.971,4.83-.75,9.852-.738,14.758.01,4.754-.638,10.174.761,14.751a.684.684,0,0,0,1.307,0C483.626,246.417,482.824,241.01,482.757,236.256Z" fill="#3e251c"/>
        <path id="Path_128" data-name="Path 128" d="M467.414,220.816c-1.548,1.927-4.074,5.352-3.338,7.973a.579.579,0,0,0,1.047.136,16.6,16.6,0,0,0,1.245-3.765c.464-1.373,1.032-2.7,1.535-4.062C468,220.832,467.595,220.59,467.414,220.816Z" fill="#3e251c"/>
        <path id="Path_129" data-name="Path 129" d="M453.852,215.26c-2.784,2.757-5.1,6.022-7.749,8.926-2.935,3.221-6.278,6.121-8.9,9.607-.559.742.55,1.85,1.3,1.29,3.488-2.621,6.338-6.053,9.149-9.361,2.525-2.97,5.621-6.414,6.517-10.281A.188.188,0,0,0,453.852,215.26Z" fill="#3e251c"/>
        <path id="Path_130" data-name="Path 130" d="M439.214,205.625a13.838,13.838,0,0,0-5.793,4,1.227,1.227,0,0,0,1.738,1.731c.828-.745,1.536-1.608,2.295-2.423.792-.85,1.628-1.638,2.341-2.559C440.082,206.006,439.61,205.512,439.214,205.625Z" fill="#3e251c"/>
        <path id="Path_131" data-name="Path 131" d="M433.945,198.692c-4.414,2.025-8.549,4.587-12.959,6.647-4.707,2.2-10.762,3.381-14.958,6.4a.785.785,0,0,0,.4,1.453c4.838.086,10.18-2.9,14.543-4.8,4.909-2.138,10.2-4.933,13.2-9.48C434.268,198.765,434.08,198.63,433.945,198.692Z" fill="#3e251c"/>
        <path id="Path_132" data-name="Path 132" d="M428.176,186.855c-1.849.577-3.63,1.324-5.415,2.069-1.817.76-3.775,1.232-5.538,2.089-.949.462-.428,1.83.507,1.866,3.848.154,7.663-3.15,11.023-4.662C429.532,187.866,428.974,186.6,428.176,186.855Z" fill="#3e251c"/>
        <path id="Path_133" data-name="Path 133" d="M434.421,163.831a7.906,7.906,0,0,0-3.7-2.928c-1.53-.716-3.272-1.732-5.007-1.563a.754.754,0,0,0-.646,1.122c.865,1.341,2.284,1.731,3.729,2.241a39.556,39.556,0,0,0,5.11,1.793A.457.457,0,0,0,434.421,163.831Z" fill="#3e251c"/>
        <path id="Path_134" data-name="Path 134" d="M439.5,152.982c-3.248-2.8-6.748-5.26-9.889-8.2a37.49,37.49,0,0,1-5.346-6.183c-.882-1.292-1.393-3.194-2.871-3.923a.682.682,0,0,0-.913.238c-1.954,3.423,4.511,9,6.59,10.992,3.231,3.088,7.648,6.9,12.281,7.437A.211.211,0,0,0,439.5,152.982Z" fill="#3e251c"/>
        <path id="Path_135" data-name="Path 135" d="M450.869,136.332c-.716-1.812-1.1-4.578-2.826-5.7a.752.752,0,0,0-1.025.267c-.85,1.888.491,3.987,1.326,5.7.946,1.937,1.995,4.487,3.746,5.841a.331.331,0,0,0,.558-.232C452.779,140.2,451.585,138.143,450.869,136.332Z" fill="#3e251c"/>
        <path id="Path_136" data-name="Path 136" d="M467.223,126.52c.087-4.558.724-9.264.143-13.793-.14-1.079-1.926-1.593-2.114-.286-1.169,8.171-1.5,18.358,1.3,26.227a.424.424,0,0,0,.828-.11C467.33,134.542,467.146,130.539,467.223,126.52Z" fill="#3e251c"/>
        <path id="Path_137" data-name="Path 137" d="M479.1,128.153a.532.532,0,0,0-.962-.125,8.45,8.45,0,0,0-1.114,4c-.118,1.113-.719,3.03.026,4.007a.254.254,0,0,0,.277.113c1.153-.342,1.284-2.12,1.492-3.107A10.3,10.3,0,0,0,479.1,128.153Z" fill="#3e251c"/>
        <path id="Path_138" data-name="Path 138" d="M496.137,113.634c-3,2.731-4.42,7.221-5.923,10.911-1.629,4-3.105,8.334-3.193,12.689a.224.224,0,0,0,.413.112c1.877-3.856,3.193-7.976,4.96-11.886,1.648-3.643,4.355-6.993,5.519-10.795A1.07,1.07,0,0,0,496.137,113.634Z" fill="#3e251c"/>
        <path id="Path_139" data-name="Path 139" d="M498.2,134.516c-1.334,1.863-3.015,4.039-3.311,6.361-.039.316.387.413.579.239a15.676,15.676,0,0,0,4.184-5.99C499.969,134.223,498.686,133.831,498.2,134.516Z" fill="#3e251c"/>
        <path id="Path_140" data-name="Path 140" d="M523.365,122.531c-4.064,2.773-7.4,6.654-10.684,10.273-3.526,3.885-7.3,7.479-10.969,11.221a.234.234,0,0,0,.284.365c4.323-2.2,7.663-5.776,11.011-9.2,3.752-3.839,7.612-7.5,11.474-11.212C525.225,123.26,524.241,121.931,523.365,122.531Z" fill="#3e251c"/>
      </g>
      <g id="Group_19" data-name="Group 19">
        <path id="Path_141" data-name="Path 141" d="M318.265,505.541a119.874,119.874,0,0,1-24.608,8.2c-7.728,1.819-15.817,2.543-23.594,4.124.485-1.289-.536-3.745-.865-4.667a1.219,1.219,0,0,0-1.318-.658c-1.044.157-1.4,1.061-1.494,2a4.084,4.084,0,0,0-.8-.254c-1.693-.874-3.714-.85-4.893.87a3.816,3.816,0,0,0-.542,1.212,5.909,5.909,0,0,0-.5.826c-4.407-1.357-8.887-2.357-13.409-3.278-6.146-1.247-12.45-3.143-18.732-3.359a.159.159,0,0,0-.1.287c8.612,5.935,21.63,5.789,31.613,8.653,0,.019,0,.039,0,.061a7.321,7.321,0,0,0-1.735,3.476c-.2.954.955,1.428,1.68,1.144A4.586,4.586,0,0,0,260.686,523a5.668,5.668,0,0,0,2.632,1.25,3.792,3.792,0,0,0,3.156-.845,3.881,3.881,0,0,0,2.858-2.941c8.3.619,17.035-1.844,24.866-3.868,8.64-2.234,17.854-4.048,24.683-10.129A.562.562,0,0,0,318.265,505.541Z" fill="#3e251c"/>
        <path id="Path_142" data-name="Path 142" d="M493.411,492.056c-4.854,8.236-11.336,15.1-18.285,21.623-6.2,5.815-13.561,10.393-19.865,15.985-.023-.017-.044-.039-.068-.057a2.622,2.622,0,0,0-.93-.391,3.3,3.3,0,0,0-2.57-.719,4.409,4.409,0,0,0-.872-1.18,1.563,1.563,0,0,0-2.584.679,7.394,7.394,0,0,0-.026,2.23,276.025,276.025,0,0,1-37.6-17.508c-.368-.212-.913.239-.622.619,8.8,11.624,25.306,15.74,38.6,20.615a3.133,3.133,0,0,0,1.434,2.446,4.364,4.364,0,0,0,2.592.563,4.189,4.189,0,0,0,1.7-.491c.591,1.585,3.244,1.863,3.649-.088.036-.177.031-.341.055-.512h.013c0-.029,0-.054,0-.084a7.453,7.453,0,0,0-.284-3.2c6.871-3.278,13.111-9.383,18.406-14.378,7.631-7.2,13.859-16.061,19.09-25.092A1.053,1.053,0,0,0,493.411,492.056Z" fill="#3e251c"/>
        <g id="Group_14" data-name="Group 14">
          <path id="Path_143" data-name="Path 143" d="M147.643,569.407a.088.088,0,0,0-.151,0c-3.266,7.465-2.172,17.029-2.43,25.024-.3,9.458-.6,18.909-.562,28.367a7.814,7.814,0,0,0-2.327.18,21.7,21.7,0,0,0-3.943,1.5,4.554,4.554,0,0,0-.994.647,5.131,5.131,0,0,0-1.466.968,11.065,11.065,0,0,0-1.572,1.187,1.959,1.959,0,0,0,.86,3.246,14.921,14.921,0,0,0,5.138.536,9.961,9.961,0,0,0,6.839-2.093,1.7,1.7,0,0,0,1.074-1.56c.486-10.058.779-20.119,1.061-30.188C149.414,588.5,151.183,577.614,147.643,569.407Z" fill="#3e251c"/>
          <path id="Path_144" data-name="Path 144" d="M187.919,629.72l0-.019c-3.263-9.7-4.422-19.538-4.741-29.732-.265-8.516,1.181-17.865-1.447-26.091a.2.2,0,0,0-.373,0c-2.91,8.855-2.067,19.336-1.834,28.532.223,8.826,1.268,17.855,4.374,26.168a16.673,16.673,0,0,0-2.212.612,8.7,8.7,0,0,0-5.326,4.2,1.965,1.965,0,0,0,.7,2.666c3.6,1.753,9.419-.335,11.212-3.907A2.131,2.131,0,0,0,187.919,629.72Z" fill="#3e251c"/>
          <g id="Group_11" data-name="Group 11">
            <path id="Path_145" data-name="Path 145" d="M229.3,487.09c-6.249-5.151-14.281-10.714-22.646-11.235a2.919,2.919,0,0,0-2.263.95c-.042-1.082-.089-2.164-.165-3.25-.205-2.84-4.2-4.413-5.716-1.541-.217.409-.409.829-.613,1.242a2.967,2.967,0,0,0-3.691-.755c-.272-2.715-4.243-4.4-5.677-1.474-.339.69-.649,1.384-.959,2.08a3.2,3.2,0,0,0-3.014,1.415c-.911,1.328-1.75,2.692-2.56,4.069-.1-.784-.217-1.57-.377-2.363-.485-2.4-3.507-2.736-5.106-1.344a27.275,27.275,0,0,0-3.033,3.129q-1.679-1.192-3.405-2.318a50.75,50.75,0,0,0-1.712-6.617c-.055-.5-.1-1-.17-1.493a4.249,4.249,0,0,0-5.4-3.675c-.467-1.85-.932-3.7-1.363-5.561-.419-2.592-.884-5.174-1.46-7.723a3.308,3.308,0,0,0-2.627-2.763q.057-3.484.21-6.957c.345-3.056.431-6.154.486-9.141a2.494,2.494,0,0,0-1.887-2.627,24.84,24.84,0,0,0-6-8.052c-.306-1.969-2.14-3.866-4.391-3.127-.189.062-.38.132-.569.2a3.308,3.308,0,0,0-1.5.4,3.718,3.718,0,0,0-1.028.536c-7.2,2.923-13.971,7.937-12.818,16.621,1.206,9.09,7.741,17.869,13.256,24.908a102.044,102.044,0,0,0,3.654,10.972c-7.724,11.415-10.735,25.141-15,38.055-5.457,16.525-11.6,33-17.484,49.4a4.058,4.058,0,0,0,2.849,5c2.159.467,4.283,1.058,6.387,1.709a.114.114,0,0,1,.017.022c4.442,4.513,10.263,6.534,16.27,8.149,7.5,2.017,15.1,3.823,22.628,5.755,8.149,2.093,25.271,6.087,33.691.051,2.332-.048,4.665-.155,6.99-.255a3.745,3.745,0,0,0,4.2-.142c.109,0,.221-.009.332-.01,2.7-.054,3.991-2.357,3.654-4.777-1.143-8.275-2.335-16.54-3.242-24.831,1-5.955.69-12.157.36-18.22-.374-6.85-.511-13.707-.63-20.567,4.3,5.481,12.269,13.913,19.671,11.885,6.063-1.659,12.811-11.881,14.163-17.582C243.277,498.269,233.74,490.758,229.3,487.09Zm-88.546-55.875c.13.432.248.867.374,1.3a3.369,3.369,0,0,0-.464-.506c-.285-.516-.563-1.039-.859-1.553a4.122,4.122,0,0,0-.633-.823,12.293,12.293,0,0,1,2.758-2.35c.016.106.036.209.052.313A3.261,3.261,0,0,0,140.749,431.215ZM197.42,545.2a39.038,39.038,0,0,1-1.714,6.495c-.032-.267-.055-.534-.084-.8a63.234,63.234,0,0,0,1.81-7.581C197.42,543.946,197.419,544.575,197.42,545.2Zm.7,17.1c-.121-.119-.248-.22-.37-.329.336-.461.649-.934.957-1.411.006.08.015.158.02.238.063.832.127,1.666.185,2.5A7.474,7.474,0,0,0,198.118,562.3Zm29.92-47.467a5.376,5.376,0,0,1-.946.8c.3-.876.62-1.735.98-2.553a2.659,2.659,0,0,0,.74-1.47,7.537,7.537,0,0,1,5.144-3.861C232.416,510.486,229.729,513.052,228.038,514.837Zm1.7-18.013c-.432-.936-.9-1.85-1.414-2.739a46.634,46.634,0,0,1,5.972,7.056,5.07,5.07,0,0,1,.517,1.016A34.336,34.336,0,0,1,229.738,496.824Z" fill="#ed918e"/>
            <path id="Path_146" data-name="Path 146" d="M245.161,463.787c-1.181-6.361-8.212-6.274-13.07-3.977a20.541,20.541,0,0,0-5.011,3.439c4.262-6.074,5.767-13.627,2.232-21.138-2.715-5.773-8.123-9.651-14.078-12.4a80.425,80.425,0,0,0-14.112-9.622c-9.491-5.264-20.982-8.452-29.34-2.876a3.083,3.083,0,0,0-4.4-.423c-10.569,8.9-13.658,27.971-8.246,40.468a22.323,22.323,0,0,0,4.509,6.683c.725,4.8,3.635,9.209,10.013,12.74a3.392,3.392,0,0,0,2.257.4c11.374,5.944,24.854,5.693,37.457,3.013a28.641,28.641,0,0,0,14.658-7.963c.227-.048.453-.1.673-.161a3.967,3.967,0,0,0,2.369,2.478c4.308,1.44,8.078-.273,9.825-3.571C243.639,469.262,245.771,467.077,245.161,463.787Zm-65.81-12.4c.191.1.384.186.575.281a34.45,34.45,0,0,1-2.356,3.086C178.131,453.6,178.738,452.472,179.351,451.389Z" fill="#fcd09d"/>
            <path id="Path_147" data-name="Path 147" d="M189.039,477.364c-1.762-1.1-4.075-.19-5.814.426a15.455,15.455,0,0,1-3.129.819,5.93,5.93,0,0,1-2.506-2.159v-.009a1.9,1.9,0,0,0-.491-.9,8.086,8.086,0,0,1-.338-.877,3.348,3.348,0,0,0-6.543.881c-.229,4.262,1.666,8.2,5.825,9.4,1.749,1.451,4.164,1.8,6.927.1a11,11,0,0,0,6.154-3.017C190.359,480.623,190.866,478.514,189.039,477.364Z" fill="#fcd09d"/>
            <path id="Path_148" data-name="Path 148" d="M232.74,458.461a3.317,3.317,0,0,0,.116.32c.074-.019.151-.03.224-.049,2-1.408,4.318-2.173,6.547-1.425,5.856-10.168,2.775-28.284-1.559-38.015a24.377,24.377,0,0,0-7.288-9.422,15.921,15.921,0,0,0-7.537-5.22c-6.563-5.77-14.645-9.941-22.809-6.937-5.85-1.251-11.937-.812-16.994,1.872-.5.049-.977.11-1.4.184-4.963.867-12.894,3.007-14.9,8.287-1.7,4.464,1.3,8.443,5.453,10.034a14.982,14.982,0,0,0,7.239,3.173,54.5,54.5,0,0,0,8.3.829,9.851,9.851,0,0,0-.411,7.044c2.152,6.75,9.139,8.3,15.545,8.44a16.33,16.33,0,0,0,6.038-.979,8.521,8.521,0,0,0,3.005,2.727,19.461,19.461,0,0,0,15.286,1.374,6.782,6.782,0,0,0,4.822,3.682C232.139,449.094,231.807,453.664,232.74,458.461Zm-46.96-52.113c.294-.2.594-.38.9-.548a40.338,40.338,0,0,1,4.972.016A34.65,34.65,0,0,1,185.78,406.348Zm29.575,4.952a5.459,5.459,0,0,0,.163-.879l.223.067a4.668,4.668,0,0,0,.853.793l.067.048Q216.01,411.3,215.355,411.3Z" fill="#af7951"/>
            <path id="Path_149" data-name="Path 149" d="M284.975,445.379c-.37-.4-.711-.831-1.05-1.258-.764-2.366-1.639-5-2.7-7.614a37.489,37.489,0,0,0-3.317-7.963A1.407,1.407,0,0,0,277.95,427c-6.783-10.929-30.782-23.216-38.007-5.7-2.318,5.619-.089,11.5,4.148,16.556.775,7.018,8.025,10.761,16.036,12.314,3.825,4.755,11.7,2.976,17.155,4.071a3.12,3.12,0,0,0,3.624-2.111q2.9.013,5.812-.062a1.924,1.924,0,0,0,1.906-1.9C288.608,448.046,286.284,446.811,284.975,445.379Zm-38.267-15.687a13.187,13.187,0,0,1-1.08-2.882,5.43,5.43,0,0,0,1.361.522A5.95,5.95,0,0,0,246.709,429.691Zm15.414-9.89-.009.009a5.911,5.911,0,0,0-2.924.641,3.207,3.207,0,0,0-.871-1.47,20.788,20.788,0,0,1,3.053.576C261.625,419.629,261.872,419.726,262.123,419.8Zm-7.635-1c-.073.061-.149.11-.218.178a3.692,3.692,0,0,1-.859.593c-.121-.239-.249-.47-.384-.687C253.512,418.842,254,418.813,254.488,418.8Z" fill="#af7951"/>
            <path id="Path_150" data-name="Path 150" d="M289.981,450.111c-3.994-4.852-5.866-11.057-9.394-16.249a2.024,2.024,0,0,0-2.434-.8c-.511-1.274-1.037-2.495-1.609-3.594a.37.37,0,0,0-.674.283c.4,1.4.772,2.876,1.152,4.374a2.216,2.216,0,0,0-.186.752c-.265,4.091,2.373,11.756,6.51,16.024-7.781-1.487-14.708-5.242-22.556-7.649-2.752-.842-4.528,3.3-1.963,4.635,10.079,5.263,21.411,8.578,32.728,6.131a1.267,1.267,0,0,0,.942-1.231C292.374,451.373,291.194,450.708,289.981,450.111Z" fill="#af7951"/>
            <path id="Path_151" data-name="Path 151" d="M197.672,387.111c-.019-.215-.055-.415-.08-.622.954-8.6-5.182-18.085-13.395-20.991-4.716-1.669-8.41-.754-13.073.754-1.377.445-3.691,1.432-6.278,2.372a1.962,1.962,0,0,0-2.711.916c-4.535,1.406-9.235,2.1-11.035-.707a2.213,2.213,0,0,0-3.822,2.225c5.8,12.165,14.743,23.054,27.774,27.723,7.749,2.778,20.182,3.846,21.418-6.821a1.9,1.9,0,0,0,.007-.4,2.121,2.121,0,0,0,.43-1.469c-.009-.152-.025-.29-.035-.441.124-.367.255-.731.349-1.1A1.929,1.929,0,0,0,197.672,387.111Zm-11.688-13.14a34.074,34.074,0,0,0-1.507-3.634,17.032,17.032,0,0,1,3.732,2.65A2.114,2.114,0,0,0,185.984,373.971Zm-12.09-.217c.057.273.114.548.169.822-.447-1.5-.939-2.991-1.487-4.465.163-.054.325-.1.488-.155C173.3,371.222,173.588,372.485,173.894,373.754Zm-11.87,1.161c.578,2.218.453,2.928,0,2.849-1.076-1.212-2.018-2.351-2.791-3.347.964-.2,1.923-.454,2.864-.729A1.808,1.808,0,0,0,162.023,374.915Zm18.739-5.837a1.587,1.587,0,0,0,.109.876c.59,1.331,1.168,2.688,1.708,4.062,1.093,3.163,1.813,6.483,2.675,9.732a24.56,24.56,0,0,1,.188,3.9c-2.912-5.7-3.143-13.136-6.3-18.717A12.321,12.321,0,0,1,180.763,369.078Zm-11.793,2.3c.777,2.933,1.667,5.868,2.265,8.838-1.3-2.775-2.916-5.468-4.343-8.108.214-.075.435-.151.642-.222Q168.257,371.632,168.97,371.375Zm-14.593,3.5c.226.012.453.016.68.016.015.029.023.057.039.084a14.922,14.922,0,0,0,1.859,2.536A80.194,80.194,0,0,0,168.22,389.7c.157.27.3.547.466.816C162.734,386.911,158.007,380.962,154.377,374.877Z" fill="#af7951"/>
            <path id="Path_152" data-name="Path 152" d="M190.1,373.014q-.749-1.122-1.494-2.243a3.761,3.761,0,0,0-3.092-1.632,9.953,9.953,0,0,0-3.168-1.071,4.5,4.5,0,0,0-.744-.042c-1.69-2.591-6.031-1.26-6.307,1.441-.06-.017-.124-.025-.185-.042a3.493,3.493,0,0,0-3.9-.678c-1.561.8-3.116,1.561-4.7,2.277a28.216,28.216,0,0,0-9.723,4.027,3.059,3.059,0,0,0-1.124,1.37,2.428,2.428,0,0,0-.451,1.969c1.355,6.08,8.347,11.622,13.9,13.793,2.1.818,4.077-1.975,2.892-3.745-2.519-3.761-5.946-6.627-9.066-9.813a3.054,3.054,0,0,0,1.289-.178c.773-.271,1.533-.558,2.293-.852.261-.09.523-.175.786-.264a8.688,8.688,0,0,0,1.546,5.077c1.481,2.16,5.311,2.169,5.958-.776a15.184,15.184,0,0,0,.242-4.784c.048.009.084.019.135.028,2.581,1.234,3.723,4.948,4.468,7.4a3.184,3.184,0,0,0,2.171,2.188c-.025.039-.044.083-.07.122-1.369,2.1-2.881,4.364-2.29,6.959a3.481,3.481,0,0,0,2.513,2.5,6.313,6.313,0,0,0,3.871-.612,2.838,2.838,0,0,0,1.543-4.077,8,8,0,0,1,.562-1.167,9.262,9.262,0,0,0,1.408-2.5c.859-3.572.511-6.98.135-10.455A3.11,3.11,0,0,0,190.1,373.014Z" fill="#af7951"/>
            <path id="Path_153" data-name="Path 153" d="M204.054,398.525c-.15-.146-.31-.257-.464-.39a3.016,3.016,0,0,0-2.369-1.513,12.593,12.593,0,0,0-7.931-.333,2.954,2.954,0,0,0-2.281,3.558,3.52,3.52,0,0,0-.361,1.85,55.5,55.5,0,0,1-9.229,1.06c-3.884.162-3.917,6,0,6.025.547,0,1.095-.01,1.642-.023a1.442,1.442,0,0,0,1.628.351,10.786,10.786,0,0,1,1.459-.491c1.449-.107,2.892-.28,4.324-.506.722-.013,1.452-.013,2.188-.023a2.211,2.211,0,0,0,1.67-.748,43.752,43.752,0,0,0,5.924-1.863,3.365,3.365,0,0,0,2.232-2.856,2.435,2.435,0,0,0,.351-.215A2.305,2.305,0,0,0,204.054,398.525Z" fill="#af7951"/>
            <path id="Path_154" data-name="Path 154" d="M220.85,411.173c-.032-.017-.06-.036-.089-.054-.352-1.461-2.242-2.351-3.841-2.823l-.031-.009c-.309-.091-.606-.165-.878-.225-.089-.019-.181-.039-.271-.055-.045-.009-.095-.022-.137-.027v.006c-.274-.045-.549-.093-.833-.116a3.119,3.119,0,0,0-3.025,2.291,3.155,3.155,0,0,0,2.191,3.845,9.241,9.241,0,0,0,1.575.259,6.052,6.052,0,0,0,.616.229,1.929,1.929,0,0,0,2.426,1.6,5.051,5.051,0,0,0,1.085-.458l.06-.02C222.022,415.738,222.911,412.215,220.85,411.173Z" fill="#af7951"/>
            <path id="Path_155" data-name="Path 155" d="M228.195,408.867c-.3-2.112-2.621-4.181-4.3-5.316-1.711-1.158-5.757-2.118-6.894.217a1.9,1.9,0,0,0,.023,1.756l-.023,0a2.2,2.2,0,0,0,.189.222,1.433,1.433,0,0,0,.124.146c1.01,1.034,2.549.861,3.794,1.667,1.412.915,1.768,2.63,2.979,3.682C226.066,412.957,228.531,411.262,228.195,408.867Z" fill="#af7951"/>
            <path id="Path_156" data-name="Path 156" d="M262.463,419.471c-2.3-2.09-5.024-.439-7.539.491-3.119,1.154-6.294,2.159-9.405,3.326-.026.006-.042.025-.066.032a1.964,1.964,0,0,0-1.283.929,2.555,2.555,0,0,0-.582,1.766c-.779,4.222,3.186,6.634,7.286,4.651a2.431,2.431,0,0,0,.9-3.352c1.268-.418,2.528-.874,3.794-1.338,2.546-.932,6.659-1.335,7.482-4.309A2.245,2.245,0,0,0,262.463,419.471Z" fill="#af7951"/>
            <path id="Path_157" data-name="Path 157" d="M233.687,456.514a32.633,32.633,0,0,0-1.485-8.983c-.871-3.157-5.8-2.538-5.742.773.006.283.029.563.047.842a2.509,2.509,0,0,0,.049.952c.012.041.023.08.032.122.135,1.312.342,2.618.489,3.926a28.377,28.377,0,0,1,.185,3.623c-.013.864-.52,1.209.181,1.018l.007.025c-.236.078-.476.167-.741.284-3.2,1.424-.911,6.651,2.369,5.593a16.912,16.912,0,0,1,2.075-.251,2.313,2.313,0,0,0,1.708-1.9,2.516,2.516,0,0,0,.737-1.547,14.68,14.68,0,0,0-.09-3.507A2.836,2.836,0,0,0,233.687,456.514Z" fill="#fcd09d"/>
            <path id="Path_158" data-name="Path 158" d="M239.129,464.589a13.205,13.205,0,0,1-3.072,5.258,5.082,5.082,0,0,1-2.449,1.379c-.6.154-2.549-.041-2.841-.574-.76-1.392-3.232-1.2-3.538.461-.814,4.416,5.716,5.484,8.781,4.475,4.174-1.371,6.8-5.7,8.062-9.644C245.081,462.8,240.123,461.461,239.129,464.589Z" fill="#fcd09d"/>
            <path id="Path_159" data-name="Path 159" d="M141.546,426.048a2.915,2.915,0,0,0-1.881-.042,3.178,3.178,0,0,0-2.364,2.9,2.566,2.566,0,0,0,1.574,2.427,1.331,1.331,0,0,0,1.893,1.87,12.4,12.4,0,0,0,3.433-4.394A2,2,0,0,0,141.546,426.048Z" fill="#ed918e"/>
            <path id="Path_160" data-name="Path 160" d="M203.365,383.428c-2.391,1.18-4.361,3.2-6.319,5.067-.221-2.578-2.561-4.919-4.605-6.763-1.149-1.035-3.66-.836-3.912,1.029-.531,3.911,1.514,11.167,6.023,12.23a4.47,4.47,0,0,0,3.012-.4,2.707,2.707,0,0,0,1.61.078c2.98-.7,6.508-5.136,7.677-7.773A2.564,2.564,0,0,0,203.365,383.428Z" fill="#ed918e"/>
            <path id="Path_161" data-name="Path 161" d="M252.276,418.237a12.451,12.451,0,0,0-7-.658,14.587,14.587,0,0,0,3.327-8.081,2.734,2.734,0,0,0-3.461-2.624c-4.043,1.673-7.792,7.937-7.016,12.305a5.678,5.678,0,0,0,3.887,4.365c2.88,2.807,8.628,5.206,11.652,1.553a2.635,2.635,0,0,0,.524-2.688A3.421,3.421,0,0,0,252.276,418.237Z" fill="#ed918e"/>
          </g>
          <path id="Path_162" data-name="Path 162" d="M167.052,413.978c-4.122,3.482-10.624,14.426-11.118,29.477-1.123,34.328,41.971,47.015,65.2,33.954a58.39,58.39,0,0,0,5.9-4.2" fill="none" stroke="#492a20" stroke-linecap="round" stroke-linejoin="round" stroke-width="3.632"/>
          <path id="Path_163" data-name="Path 163" d="M228.511,461.74s7.243-8.955,14.989-1.991-6.747,23.383-16.988,13.185" fill="none" stroke="#492a20" stroke-linecap="round" stroke-linejoin="round" stroke-width="3.632"/>
          <path id="Path_164" data-name="Path 164" d="M195.1,395.692s6.176-19.467-5.621-26.494c-17.237-10.263-32.415,10.077-38.971,3.173,0,0,7.682,32.838,41.781,24.444" fill="none" stroke="#492a20" stroke-linecap="round" stroke-linejoin="round" stroke-width="3.632"/>
          <g id="Group_12" data-name="Group 12">
            <path id="Path_165" data-name="Path 165" d="M196.358,395.705s12.575-6.8,10.279-11.563S196.429,385.607,196.358,395.705Z" fill="none" stroke="#492a20" stroke-linecap="round" stroke-linejoin="round" stroke-width="3.632"/>
            <path id="Path_166" data-name="Path 166" d="M196.358,395.705s12.575-6.8,10.279-11.563S196.429,385.607,196.358,395.705Z" fill="none" stroke="#492a20" stroke-linecap="round" stroke-linejoin="round" stroke-width="3.632"/>
            <path id="Path_167" data-name="Path 167" d="M196.755,395.946s-.9-14.219-6.208-14.148S187.587,391.635,196.755,395.946Z" fill="none" stroke="#492a20" stroke-linecap="round" stroke-linejoin="round" stroke-width="3.632"/>
          </g>
          <g id="Group_13" data-name="Group 13">
            <path id="Path_168" data-name="Path 168" d="M239.523,421.489s12.448,7.027,15.293,2.565S248.167,416.206,239.523,421.489Z" fill="none" stroke="#492a20" stroke-linecap="round" stroke-linejoin="round" stroke-width="3.632"/>
            <path id="Path_169" data-name="Path 169" d="M239.523,421.489s12.448,7.027,15.293,2.565S248.167,416.206,239.523,421.489Z" fill="none" stroke="#492a20" stroke-linecap="round" stroke-linejoin="round" stroke-width="3.632"/>
            <path id="Path_170" data-name="Path 170" d="M239.528,421.953s11.64-8.287,8.771-12.733S238.35,411.926,239.528,421.953Z" fill="none" stroke="#492a20" stroke-linecap="round" stroke-linejoin="round" stroke-width="3.632"/>
          </g>
          <path id="Path_171" data-name="Path 171" d="M239.126,422.744s13.866-13.991,28.106-6.715,15.927,31.345,24.544,34.889c0,0-44.967,12.685-50.4-19.963" fill="none" stroke="#492a20" stroke-linecap="round" stroke-linejoin="round" stroke-width="3.632"/>
          <path id="Path_172" data-name="Path 172" d="M233.692,445.879c-14.613-2.611-.795-12.879.562-11.751,1.5,1.244-3.247,11.193-18.486,6.467s-.473-18.28,1.5-14.677c1.5,2.737-9.04,15.844-24.732,6.467-11.241-6.715,6-20.4,7-17.91s-.5,6.966-12.991,6.467-21.587-6.553-20.736-9.949c2.622-10.45,20.859-13.807,29.48-14.552,13.4-1.16,34.8,5.621,42.345,22.014,5.007,10.879,6.421,25.476,1.551,38.186" fill="none" stroke="#492a20" stroke-linecap="round" stroke-linejoin="round" stroke-width="3.632"/>
          <path id="Path_173" data-name="Path 173" d="M233.692,445.879s-.936,10.077,1.124,11.569" fill="none" stroke="#492a20" stroke-linecap="round" stroke-linejoin="round" stroke-width="1.496"/>
          <path id="Path_174" data-name="Path 174" d="M181.42,437.859a3.373,3.373,0,1,0-3.372,3.36A3.366,3.366,0,0,0,181.42,437.859Z" fill="#3e251c"/>
          <ellipse id="Ellipse_3" data-name="Ellipse 3" cx="3.373" cy="3.358" rx="3.373" ry="3.358" transform="translate(206.402 450.172)" fill="#3e251c"/>
          <path id="Path_175" data-name="Path 175" d="M186.665,441.963s-3.759,7.085,2.747,10.447,11.367-2.859,11.367-2.859" fill="none" stroke="#492a20" stroke-linecap="round" stroke-linejoin="round" stroke-width="3.632"/>
          <path id="Path_176" data-name="Path 176" d="M170.363,472.745s-1.6,9.309,4.684,12.128c9.555,4.291,14.427-3.358,14.427-3.358" fill="none" stroke="#492a20" stroke-linecap="round" stroke-linejoin="round" stroke-width="3.632"/>
          <path id="Path_177" data-name="Path 177" d="M218.516,479.276S245.309,500.357,244,502.6s-11.991,21.642-17.987,19.963-18.549-12.874-18.549-12.874" fill="none" stroke="#492a20" stroke-linecap="round" stroke-linejoin="round" stroke-width="3.632"/>
          <path id="Path_178" data-name="Path 178" d="M208.024,498.8c-1.251,20.15,3.749,80.1,3.749,80.1-57.961,12.682-97.808-17.914-97.808-17.914-2-11.695,33.538-93.845,33.538-93.845s-17.8-29.848-17.8-36.005,17.613-14.367,17.613-14.367L158,429.462" fill="none" stroke="#492a20" stroke-linecap="round" stroke-linejoin="round" stroke-width="3.632"/>
          <path id="Path_179" data-name="Path 179" d="M139.121,420.68a68.928,68.928,0,0,1-4.786-14.064c-.568-2.659-.893-5.333-1.353-7.978a8.886,8.886,0,0,0,2.848-2.615c.092-.125.186-.268.281-.412,1.444-1.369,2.29-3.294,1.254-4.875-.644-.981-1.536-.478-2.4.532a1.992,1.992,0,0,0-.523.577,1.1,1.1,0,0,0-.1.238c-.1.144-.2.291-.3.442a8.659,8.659,0,0,0-.281-1.66,17.444,17.444,0,0,0-1.029-7.427,1.209,1.209,0,0,0-1.987-.522c-1.673,1.622-1.644,3.827-1.259,5.953a23.57,23.57,0,0,0-2.351-3.481c-1.01-1.247-2.694-.084-2.822,1.166a8.84,8.84,0,0,0,1.415,5.4c-.793-.042-1.588-.061-2.386-.075-1.922-.036-2.2,2.308-.894,3.289,2.2,1.647,5.263,3.65,8.172,3.75.336,8,2.6,16.741,6.539,22.911A1.141,1.141,0,0,0,139.121,420.68Z" fill="#3e251c"/>
          <path id="Path_180" data-name="Path 180" d="M176.027,446.671a5.733,5.733,0,0,0-.69-1.635,4.489,4.489,0,0,0-1.278-2.278,5.449,5.449,0,0,0-4.777-1.258,4.963,4.963,0,0,0-3.641,3.172c-.793,1.935.341,4.048,1.51,5.528a5.811,5.811,0,0,0,6.013,1.9A4.312,4.312,0,0,0,176.027,446.671Z" fill="#df7a85"/>
          <path id="Path_181" data-name="Path 181" d="M211.651,460.755a4.936,4.936,0,0,0-3.633-.568,4.323,4.323,0,0,0-1.526.049,3.645,3.645,0,0,0-2.686,2.982,5.213,5.213,0,0,0,5.07,6.17,5.489,5.489,0,0,0,5.153-3.45C214.767,463.9,213.327,461.772,211.651,460.755Z" fill="#df7a85"/>
        </g>
        <g id="Group_15" data-name="Group 15">
          <path id="Path_182" data-name="Path 182" d="M339.883,637.095c1.44-12.221,2.779-25.4,1.781-37.689a.16.16,0,0,0-.3-.038c-3.8,11.24-4.282,23.981-5.707,35.781a13.293,13.293,0,0,0-5.158.968c-2.273.768-4.183,2.273-4.649,4.7a1.475,1.475,0,0,0,.9,1.557,18.159,18.159,0,0,0,8.168.541c1.952-.271,4.754-1.606,4.5-4.019a2.071,2.071,0,0,0-.156-.51A2.044,2.044,0,0,0,339.883,637.095Z" fill="#3e251c"/>
          <path id="Path_183" data-name="Path 183" d="M403.7,635.774a13.824,13.824,0,0,0-6.891.148c-1.293-6.445-2.239-12.939-3.142-19.451-.878-6.353-1.374-13.219-4.222-19.039-.194-.4-.91-.415-.943.109-.4,6.414,1.009,12.953,1.743,19.325.839,7.31,1.778,14.584,3.218,21.8a1.962,1.962,0,0,0,1.932,1.595,8.712,8.712,0,0,0,4.2,1.126,8.406,8.406,0,0,0,5.908-1.248C407.675,638.469,405.52,636.289,403.7,635.774Z" fill="#3e251c"/>
          <path id="Path_184" data-name="Path 184" d="M413.939,498.73c-1.849-1.921-4.978-3-7.668-3.91-8.667-4.219-17.733-6.476-27.331-3.133-7.843,2.733-14.769,6.946-23.23,7.584-7.523.564-14.928-.561-22.2-2.291-3.446-5.61-11.757-4.87-17.7-3.624-3.877.812-8.185,2.166-11.043,5-.084.086-.14.191-.22.28a8.788,8.788,0,0,0-5.2,7.411c-.182,2.578.111,9.752,2.271,13.73a7.224,7.224,0,0,0,1.807,5.689,2.606,2.606,0,0,0,2.536,2.362c.5.049,1,.074,1.5.1.055,0,.1-.012.159-.012,3.072.932,8.13,1.287,9.973-1.663.017-.028.019-.059.033-.087a20.511,20.511,0,0,0,9.024-2.379c-.62,5.989-1.373,11.975-2.04,17.932-.876,7.808-2.168,15.483-3.716,23.181a9.387,9.387,0,0,0,2.12,8.69c3.015,3.539,9.314,5.149,13.53,6.5,6.991,2.24,14.615,2.727,21.9,3,10.318.386,21.424.8,31.646-.88,6.68-1.1,15.4-3.592,16.145-11.576.482-5.177-.751-10.37-1.869-15.4-1.367-6.174-2.05-12.43-3.164-18.651-.664-3.71-1.468-7.354-2.215-11.012.654,0,1.307,0,1.964-.022a15.053,15.053,0,0,0,6.975,2.338c7.026-.022,8.2-7.011,7.958-12.484C415.646,510.071,418.06,503.011,413.939,498.73Zm-99.278,20.98a12.935,12.935,0,0,0,2.113-2.011,17.219,17.219,0,0,0,.731,1.9A22.88,22.88,0,0,1,314.66,519.711Zm.255-17.482c.793-.112,1.535-.209,2.156-.309q-.227,1.17-.434,2.338a29.433,29.433,0,0,1-2.44,7.436c-.063-.732-.1-1.463-.114-2.193A60.541,60.541,0,0,0,314.915,502.228Zm7.064,7.436a25.867,25.867,0,0,1-1.105,2.957,19.722,19.722,0,0,1,.095-3.513,67.6,67.6,0,0,0,1.487-6.693,3.029,3.029,0,0,1,.488.5C322.543,505.163,322.2,507.407,321.98,509.664ZM367.8,551.532c-.01.064-.016.128-.026.193a.219.219,0,0,1-.007-.038C367.779,551.635,367.792,551.584,367.8,551.532Zm22.622-31.723a3.167,3.167,0,0,0-.323.371c0-.068,0-.136,0-.2.067-.136.128-.275.189-.407C390.338,519.647,390.38,519.731,390.426,519.809Zm-3.785-7.085a.517.517,0,0,0-.055-.038.176.176,0,0,1,.022-.035C386.619,512.677,386.631,512.7,386.641,512.724Zm2.83-15.753c-.2-.126-.409-.236-.616-.346.3.026.607.043.913.074A2.416,2.416,0,0,0,389.471,496.972Zm19.114,12.136c-.032-.987-.061-1.973-.068-2.963.016-.441.029-.881.036-1.319C408.856,505.741,408.734,506.992,408.585,509.107Z" fill="#ea5653"/>
          <path id="Path_185" data-name="Path 185" d="M407.329,601.194a31.517,31.517,0,0,1-2.854-7.318,45.672,45.672,0,0,0-1.187-5.622c-.6-3.55-1.019-7.146-1.679-10.606-.351-1.841-2.447-2.7-4.109-2.325-5.431,1.218-12.662,1.084-18.137,3.5q-10.011-.13-20.019.316c-3.991.181-8.245.277-12.444.657a6,6,0,0,0-1.008-.181c-2.836-.232-4.615.309-7.082-.187a23.869,23.869,0,0,0-2.429-.85c-.1-.029-.194-.033-.291-.052-3.668-1.6-6.97-3.823-10.752-5.226-2.68-.995-4.5,1.877-4.154,4.135.121.776.221,1.551.32,2.325-2.3,7.18-6.227,17.791-2.809,24.747,1.549,3.155,7.5,4.085,10.409,4.835,4.787,1.235,10.18,2.264,15.149,1.974,9.114-.528,10.4-15.4,9.126-22.052a106.36,106.36,0,0,0,16.181-1.018c.2,7.224.358,17.878,7.922,20.5,8.759,3.043,20.453,1.138,28.622-2.908A3.414,3.414,0,0,0,407.329,601.194Z" fill="#4a99b2"/>
          <path id="Path_186" data-name="Path 186" d="M412.29,461.294c-3.911-3.21-7.239-2.009-9.512.855a81.346,81.346,0,0,0-.642-9.487,40.619,40.619,0,0,0-1.727-14.028,3.374,3.374,0,0,0-1.4-1.876,15.639,15.639,0,0,0-.871-2.337c-1.639-3.43-6.61-1.5-6.742,1.819-.016.349-.016.7-.02,1.05-10.04-8.1-27.251-5.95-40.833-3.974-10.644,1.55-21.64,4.816-29.412,12.568a15.949,15.949,0,0,0-2.445,3.181,3.3,3.3,0,0,0-2.493,3.22c-.086,2.3-.118,4.656-.06,7.028a14.7,14.7,0,0,0,.154,7.127,8.111,8.111,0,0,0-3.975,1.757,9.381,9.381,0,0,0-5.916,5.65c-2.13,4.323.789,11.244,7.4,10.922,2.43.7,4.251-.533,5.247-2.533,3.174,11.256,17.244,16.888,29.84,18.346a2.205,2.205,0,0,0,.288,1.374,8.8,8.8,0,0,0,3.458,3.446,6.383,6.383,0,0,0,1.663,2.785,7.879,7.879,0,0,0,8.36,1.872,8.314,8.314,0,0,0,3.407-2.84,8.728,8.728,0,0,0,4.808-8.777,46.3,46.3,0,0,0,9.931-4.419,4.326,4.326,0,0,0,2.254-.441c6.769-3.191,11.61-8.291,16.05-14.059.036.028.068.058.1.083,7.353,4.989,15.576-1.508,16.031-8.807C416.452,467.7,415.924,464.275,412.29,461.294ZM341,482.153a1.135,1.135,0,0,1-1.169-.409c.8-.477,1.549-.976,2.2-1.428a3.1,3.1,0,0,0,.856,1.487A16.977,16.977,0,0,1,341,482.153Zm4.732-40.643c-3.312.7-6.6,1.448-9.866,2.3a59.192,59.192,0,0,1,15.43-4.106C349.423,440.222,347.571,440.838,345.729,441.509Z" fill="#efc8ac"/>
          <path id="Path_187" data-name="Path 187" d="M388.713,411.89a70.553,70.553,0,0,0-28-4.846c-16.285.251-37.732,5.231-45.874,20.951a12.18,12.18,0,0,0-1.406,5.307,12.053,12.053,0,0,0-.409,1.186,3.591,3.591,0,0,0-.121.71c-.1.106-.21.212-.306.316a14.006,14.006,0,0,0-3.6,8.062c-2.631,6.64-1.7,15.467.159,21.756a2.8,2.8,0,0,0,5.342,0c2.076-6.7,1.415-12.979,1.574-19.9a6.347,6.347,0,0,1,.055-.641c3.691,8.684,13.865,16.775,22.092,14.1a11.043,11.043,0,0,0,7.486-8.062,4,4,0,0,0,1.008-2.035,8.8,8.8,0,0,0,.077-1.545c4.276,3.429,9.373,5.268,15.373,3.687a8.2,8.2,0,0,0,4.2-2.4,3.617,3.617,0,0,0,2.944-2.03,18.545,18.545,0,0,0,1.454-3.308,38.058,38.058,0,0,0,6.265.865A3.847,3.847,0,0,0,379,443.6a8.939,8.939,0,0,0,9.18-5.738c7.341,3.571,16.992,2.736,16.9-7.233C404.989,421.892,396,414.864,388.713,411.89Z" fill="#59332c"/>
          <path id="Path_188" data-name="Path 188" d="M313.449,435.869s-9.244,9.2-2.5,31.343" fill="none" stroke="#492a20" stroke-linecap="round" stroke-linejoin="round" stroke-width="3.632"/>
          <path id="Path_189" data-name="Path 189" d="M314.449,437.61s7.743,26.368,24.981,20.4,4.746-29.85-.25-28.109,12.243,26.118,25.483,20.646.5-22.387-3.748-19.9,15.238,18.907,24.482,12.191-2-18.161-5.247-15.425,18.239,17.911,24.984,8.955-12.491-30.1-41.47-29.351C338.189,407.669,313.2,423.929,314.449,437.61Z" fill="none" stroke="#492a20" stroke-linecap="round" stroke-linejoin="round" stroke-width="3.632"/>
          <path id="Path_190" data-name="Path 190" d="M317.945,445.321s.5,15.672-3.5,22.388" fill="none" stroke="#492a20" stroke-linecap="round" stroke-linejoin="round" stroke-width="3.632"/>
          <path id="Path_191" data-name="Path 191" d="M400.637,438.355a41.561,41.561,0,0,1,2.249,24.129s4-4.974,9.242-1.988,5.289,17.339-4.246,19.4a8.145,8.145,0,0,1-8.5-2.737c-.75,4.478-9.242,21.394-39.721,23.883-29.864,2.436-39.724-16.669-39.724-16.669-8.992,6.466-20.734-4.726-14.239-13.182s12.741-1.743,12.741-1.743" fill="none" stroke="#492a20" stroke-linecap="round" stroke-linejoin="round" stroke-width="3.632"/>
          <path id="Path_192" data-name="Path 192" d="M343.281,466.465a3.394,3.394,0,1,0-3.392,3.381A3.386,3.386,0,0,0,343.281,466.465Z" fill="#3e251c"/>
          <path id="Path_193" data-name="Path 193" d="M382.835,459.459a3.395,3.395,0,1,0-3.394,3.381A3.386,3.386,0,0,0,382.835,459.459Z" fill="#3e251c"/>
          <path id="Path_194" data-name="Path 194" d="M350.611,464.04s.386,9.155,11.18,7.9c9.618-1.118,8.118-10.323,8.118-10.323" fill="none" stroke="#492a20" stroke-linecap="round" stroke-linejoin="round" stroke-width="3.632"/>
          <path id="Path_195" data-name="Path 195" d="M348.8,500.795s4.247,9.452,12.741,7.96,8.871-9.7,8.871-9.7" fill="none" stroke="#492a20" stroke-linecap="round" stroke-linejoin="round" stroke-width="3.632"/>
          <path id="Path_196" data-name="Path 196" d="M329.938,494.324s-20.985-.993-25.981,3.982c-4.522,4.5-2.839,24.257,0,26.865,4.87,4.477,24.464-.548,23.795-.5" fill="none" stroke="#492a20" stroke-linecap="round" stroke-linejoin="round" stroke-width="3.632"/>
          <path id="Path_197" data-name="Path 197" d="M330,512.173c0,2.8-11.617,55.6-9.369,58.956s11.605,9.191,42.345,9.7c22.484.373,43.03-6.715,44.156-9.889s-10.615-54.852-17.736-64.926" fill="none" stroke="#492a20" stroke-linecap="round" stroke-linejoin="round" stroke-width="3.632"/>
          <path id="Path_198" data-name="Path 198" d="M389.958,490.346s30.54,3.732,30.166,9.889-2.436,26.117-7.12,27.984-16.365-4.79-16.365-4.79" fill="none" stroke="#492a20" stroke-linecap="round" stroke-linejoin="round" stroke-width="3.632"/>
          <path id="Path_199" data-name="Path 199" d="M325.44,575.419s-6.01,24.1-4.745,26.616c1.749,3.485,31.478,7.963,32.476,5.226l1.747-20.273s10.743.123,16.241-1.119c0,0,2,20.895,3.748,21.891s31.8.271,33.475-4.728c1-2.986-6-29.354-6-29.354" fill="none" stroke="#492a20" stroke-linecap="round" stroke-linejoin="round" stroke-width="3.632"/>
          <path id="Path_200" data-name="Path 200" d="M343.659,476.906a3.542,3.542,0,0,0-.32-.7,2.86,2.86,0,0,0-.772-1.409,4.432,4.432,0,0,0-3.93-1.048c-.272-.029-.542-.065-.818-.077a5.23,5.23,0,0,0-5.32,3.191c-1.082,2.607,1.1,6.045,3.764,6.5a7.086,7.086,0,0,0,6.783-3A4,4,0,0,0,343.659,476.906Z" fill="#df7a85"/>
          <path id="Path_201" data-name="Path 201" d="M387.8,467.844a6.154,6.154,0,0,0-2.51-.639c-3.5-.117-7.383,2.505-6.342,6.383a5.4,5.4,0,0,0,6.761,3.719,7.211,7.211,0,0,0,4.824-4.6A3.868,3.868,0,0,0,387.8,467.844Z" fill="#df7a85"/>
        </g>
        <g id="Group_18" data-name="Group 18">
          <path id="Path_202" data-name="Path 202" d="M603.048,618.08c-.128-.054-.258-.1-.386-.149l-.009-.009a12.222,12.222,0,0,0-8.881-2.856A131.224,131.224,0,0,0,583.521,561.7c-.612-1.437-2.695-.361-2.408,1.01,3.818,18.268,7.59,35.623,8.677,54.268a1.6,1.6,0,0,0,.092,2.1c.045.052.1.1.15.154a1.689,1.689,0,0,0,1.328,1.186c3.467,2.612,9.03,3.705,12.012.157C603.956,619.878,604.07,618.514,603.048,618.08Z" fill="#3e251c"/>
          <path id="Path_203" data-name="Path 203" d="M538.546,630.267a12.491,12.491,0,0,0-1.833-1.353.413.413,0,0,0-.192-.528,29.621,29.621,0,0,0-5.445-2.122c2.024-7.555,1.647-16.169,1.554-23.791a158.2,158.2,0,0,0-2.935-26.178c-.188-1.051-1.829-.777-1.829.245q.007,12.963,0,25.933c-.016,8.462-1.74,16.728-2.048,25.109a2.354,2.354,0,0,0-.032,2.322c.926,1.817,3.486,2.427,5.31,2.8,2.075.419,4.662.841,6.742.222A1.6,1.6,0,0,0,538.546,630.267Z" fill="#3e251c"/>
          <g id="Group_16" data-name="Group 16">
            <path id="Path_204" data-name="Path 204" d="M589.271,398.167a12.823,12.823,0,0,0-8.341-6.528c.843-6.45.095-13.546-5.645-16.659a6.744,6.744,0,0,0-2.426-1.257,13.715,13.715,0,0,0-8.082.271c-2.522-.054-4.917,1.531-6.974,3.743,3.193-10.006,3.915-20.85-6.221-21.05a3.749,3.749,0,0,0-1.156.164,15.568,15.568,0,0,0-2.36-1.084c-4.974-1.786-11.26,1.232-14.287,5.273-2.286-4.844-5.547-7.9-10.647-8.121a3.617,3.617,0,0,0-2.2-.707,23.583,23.583,0,0,0-10.534,2.428,18.47,18.47,0,0,0-4.987,3.205,3.292,3.292,0,0,0-.745,4.413,14.14,14.14,0,0,0-1.166,2.737c-4.751-2.736-11.365-3.2-16.292-2.6a14.472,14.472,0,0,0-8.461,4.053c-9.453,5.9-7.569,17.052-5.142,26.642-.111.025-.227.035-.338.07a16.563,16.563,0,0,0-4.684-.931c-6.942-.357-15.349,4.539-17.468,11.395a18.837,18.837,0,0,0,1,12.447,4.467,4.467,0,0,0-.734.355c-7.137,4.362-13.136,13.011-10.981,21.588a8.047,8.047,0,0,0,4.73,5.741A14.178,14.178,0,0,0,443.678,455c1.315,4.477,5.649,8.049,10.323,9.214a13.094,13.094,0,0,0,2.016,15.319c6.028,6.189,12.93,4.426,17.962-.346-.16,3.268.434,6.129,2.721,7.743a4,4,0,0,0,4.821-.621c2.82-2.62,4.406-7.341,6.275-10.629,3.93-6.909,11.9-8.964,18.718-12.273,2.594-1.255,2.781-5.866,0-7.063-6.9-2.969-12.169-14.652-20.724-8.869a11.031,11.031,0,0,0-2.56,2.472,4.172,4.172,0,0,0-4.566,1.47c-.076-.828-.156-1.657-.259-2.485a4.32,4.32,0,0,0-1.577-2.789,32.486,32.486,0,0,0-.038-3.391c2.252.442,4.493-1.809,4.646-4.02a9.937,9.937,0,0,0-1.13-5.679,29.912,29.912,0,0,1-2.139-6.145c-.066-.312-.147-.623-.223-.934-.51-2.27-.882-4.578-1.271-6.8a27.614,27.614,0,0,1-.355-3.405,28.439,28.439,0,0,0,1.015-7.737,61.768,61.768,0,0,0,9.453-15.721c.013-.017.022-.039.035-.058l-.007,0c.1-.242.214-.48.314-.72a2.42,2.42,0,0,0-.006-2.108c.13-.31.233-.634.348-.947a20.1,20.1,0,0,0,7.626-3.146,46.853,46.853,0,0,0,18.87-9.5,3.674,3.674,0,0,0,.364-.355,15.272,15.272,0,0,0,9.041,2.482,9.1,9.1,0,0,0,11.2,3.3c.341,3.147,3.325,6.173,6.234,5.851a4.223,4.223,0,0,0,3.606,4.138,4.5,4.5,0,0,0-.169.461,3.868,3.868,0,0,0-.185,2.557c1.747,6.386,4.551,12.718,8.995,17.7a3.372,3.372,0,0,0,1.587.987,10.375,10.375,0,0,0,.74,4.441c.642,7.249,1.363,14.7-3.127,20.7-2.785,3.723,2.386,7.372,5.782,5.755a45.671,45.671,0,0,0,8.746-5.492,64.4,64.4,0,0,0,7.19-4.538c.75,4,6.179,3.089,7.351-.054a10.546,10.546,0,0,0-.207-7.47,3.51,3.51,0,0,0-.871-4.313c3.772-1.345,7.042-4.614,9.287-7.646C592.593,410.216,591.624,402.345,589.271,398.167Z" fill="#604939"/>
            <path id="Path_205" data-name="Path 205" d="M545.687,397.784a3.713,3.713,0,0,0-4.541-.586c-.307.207-.617.371-.927.542a4.178,4.178,0,0,0-5.17-1.087,19.285,19.285,0,0,0-3.155,2.088,15.465,15.465,0,0,1-2.314-.825c-1.757-.8-4.206-.625-5.173,1.348a13.561,13.561,0,0,1-1.51,2.424,4.51,4.51,0,0,0-1.238,1.237c-.06.086-.115.181-.175.267-6,5.236-15.7,1.2-23.4-1.325a20.813,20.813,0,0,1-1.286-2.205,3.451,3.451,0,0,0-.4-.618c-.865-3.037-5.543-2.353-6.46.451a4.214,4.214,0,0,0-.715,1.158c-2.877,6.811-.958,15.167.907,22.423-.581,6.269-2.37,12.085-6.866,16.2a5.646,5.646,0,0,0-1.3.241,5.91,5.91,0,0,0-3.752,1.827,2.811,2.811,0,0,0-1.632,2.141c-.032.228-.052.462-.074.7-.019.061-.052.119-.073.183a2.155,2.155,0,0,0,.02,1.306c.073,4.633,2.3,9.976,7.436,10.477,4.442.433,6.719-2.295,7.983-5.784,4.042,6.88,13.316,10.861,21.36,12.539a31.724,31.724,0,0,0,8.3.577,1.581,1.581,0,0,0,.338,2.041,48.343,48.343,0,0,0,5.265,4.52c.361,1.866,1.683,3.26,4.588,3.41a8.336,8.336,0,0,0,4.939-1.173,8.853,8.853,0,0,0,4.219-1.943c4.174-3.459,4.452-9.142,3.4-14.061a35.977,35.977,0,0,0,4.02-2.836C566.775,438.313,558.625,413.6,545.687,397.784Z" fill="#916649"/>
            <path id="Path_206" data-name="Path 206" d="M600.926,549.5c-.063-.129-.122-.26-.186-.39.106-4.788-.48-10.228-3.621-13.867-.911-3.168-2.03-6.315-2.708-9.422-1.217-5.551-2.714-11.137-5.862-15.838-1.568-7.692-4.029-15.006-8.616-21.224a67.513,67.513,0,0,0-2.865-8.259,104.038,104.038,0,0,0-12.616-30.543c-2.245-3.7-5.192-5.341-8.063-5.423a4.87,4.87,0,0,0-1.5-.331,1.306,1.306,0,0,1-.169,1.8c-2.737,2.562-4.759,5.671-7.529,8.116-.858,2.32-.695,4.88.977,8.249,1.351,2.718,2.95,5.463,3.2,8.526a13.907,13.907,0,0,1,.611,2.215,25.074,25.074,0,0,1,1.874,6.515,1.558,1.558,0,0,1-1.454,1.841,5.4,5.4,0,0,1-2.51,2.807c0,.033,0,.068-.006.1l-.617.219c-.074.03-.13.072-.205.1a1.513,1.513,0,0,1-.358.091c-.181.064-.36.125-.539.19-5.47,1.754-11.02,3.253-16.382,5.291a34.928,34.928,0,0,0-5.193.167c-.181-.316-.37-.623-.555-.939,1.537-7.417-3.88-17.129-6.24-23.942a3.233,3.233,0,0,0-4.582-1.656,11.643,11.643,0,0,0-2.056-.9,2.342,2.342,0,0,0-1.583.017,18.613,18.613,0,0,0-5.257-.758,3.48,3.48,0,0,0-3.477,3.465,11.869,11.869,0,0,0,.913,4.639,4.081,4.081,0,0,0,1.355,1.753c.111.23.22.458.329.689a3.484,3.484,0,0,0-.086.754c-.033,10.354,2.811,20.3,5.945,30.092a3.7,3.7,0,0,0-.377,2.625c1,4.61,1.9,9.416,2.653,14.325a3.619,3.619,0,0,0,.415,2.865c.017.123.031.246.049.37a2.014,2.014,0,0,0-.071.217c-2.03,8.691-1.89,17.479-1.421,26.286-1.409,4.865-2.3,9.78-.9,14.9a4.3,4.3,0,0,0,.162.436,1.774,1.774,0,0,0-.826,1.311c-.409,2.921-1.042,5.774-1.667,8.659a2.419,2.419,0,0,0,.447,2.143c-.128.312-.243.631-.374.942-.779,1.838-.639,4.149,1.372,5.2,4.838,2.537,10.5,2.551,15.839,2.279a71.887,71.887,0,0,0,7.256-.654c2.961.055,5.048-.587,6.437-1.728a13.578,13.578,0,0,0,1.746-.919,3.4,3.4,0,0,0,2.771-.82,5.181,5.181,0,0,0,1.267-1.64,2.565,2.565,0,0,0,.019-2.337c1.852-4.5-.336-9.416-1.418-14.7-.8-3.914-1.414-7.847-2.069-11.769a84.723,84.723,0,0,0,10.26-3.988c.821-.357,1.636-.7,2.455-1.048q3.271-1.1,6.454-2.463a47.5,47.5,0,0,0,2.041,8.4c0,.041,0,.077,0,.12.035.3.093.584.134.88h-.015c.009.041.019.077.029.113a97.719,97.719,0,0,0,3.261,14.312c.6,2.035.974,4.891,1.881,7.305a3.189,3.189,0,0,0,.642,1.434,6.62,6.62,0,0,0,1.772,2.188,5.89,5.89,0,0,0,.559.331c4.885-1.676,9.95-2.666,14.919-3.966a1.551,1.551,0,0,1,.735-.652q3.376-1.4,6.7-2.936c.444-.326.86-.636,1.217-.909,3.159-2.411,7.645-5.286,8.778-9.39C605.639,556.979,602.743,553.25,600.926,549.5Z" fill="#8dc6a1"/>
            <path id="Path_207" data-name="Path 207" d="M576.387,522.491c-.095-.035-.191-.054-.287-.08.084-.049.17-.094.252-.149C576.364,522.337,576.376,522.413,576.387,522.491Z" fill="#8dc6a1"/>
            <path id="Path_208" data-name="Path 208" d="M562.57,505.29c-.249-1.982-1.565-4.494-2.522-6.928a14.712,14.712,0,0,0-1.111-7.769c.274-.792-.435-1.889-1.411-1.563-.051.015-.1.038-.143.052a3.436,3.436,0,0,0-4.058,1.679c-1.773.836-3.494,1.77-5.2,2.773a1.824,1.824,0,0,0-1.733-.251c-1.408.5-2.838.894-4.273,1.264a53.85,53.85,0,0,0-6.448,1.573c-1.363.351-2.717.734-4.049,1.2a2.079,2.079,0,0,0-1.233,3.018,3.928,3.928,0,0,0,.23.323,4.338,4.338,0,0,0-.092.786c0,2.949,2.2,6.515,3.315,9.181a19.558,19.558,0,0,0,1.811,3.382,4,4,0,0,0-.28,1.15c-.517,5.741,4.257,5.99,9.5,4.616,5.7.5,12.789-2.294,15.761-6.232A10.715,10.715,0,0,0,562.57,505.29Z" fill="#57ac93"/>
            <path id="Path_209" data-name="Path 209" d="M534.775,379.389c-7.529-3.923-16.473-6.345-24.92-4.443a1.911,1.911,0,0,0-1.307.925c-4.391.783-8.188,2.834-11.968,5.486a2.522,2.522,0,0,0-.649.663c-.4.261-.811.532-1.217.8-1.216.75-2.4,1.563-3.552,2.4a2.19,2.19,0,0,0-.767.963,29.3,29.3,0,0,0-8.957,9.583,2.14,2.14,0,0,0,.15,2.492c-.574,1.2-1.1,2.412-1.555,3.6a47.279,47.279,0,0,0,.665,35.047,1.565,1.565,0,0,0,3.015-.828c-2.705-14.784-4.029-40.533,13.61-47.825a2.5,2.5,0,0,0,1.383-1.354,69.81,69.81,0,0,1,6.623-2.823,2.5,2.5,0,0,0,1.437-1.364c1.788-.676,3.571-1.37,5.391-2.005,6.876-2.392,14.137-.729,20.409,2.438C535.069,384.411,537.275,380.692,534.775,379.389Z" fill="#57ac93"/>
            <path id="Path_210" data-name="Path 210" d="M490.237,385.236c-1.176-3.5-6.039-7.1-9.308-4.658a2.047,2.047,0,0,0-.729,2.766c1.839,2.77,5.6,5.416,9.062,5.364A1.878,1.878,0,0,0,490.237,385.236Z" fill="#57ac93"/>
            <path id="Path_211" data-name="Path 211" d="M495.662,373.816c-2.327-1.982-4.905.58-5.147,2.973a11.445,11.445,0,0,0,.389,3.729c.077.335.255.8.425,1.292a9.132,9.132,0,0,0-.326,2.022c-.052,2.178,2.744,2.634,3.852,1.038,1-1.445,1.223-3.679,1.508-5.377S497.185,375.115,495.662,373.816Z" fill="#57ac93"/>
            <path id="Path_212" data-name="Path 212" d="M546.315,386a10.682,10.682,0,0,0-3.09-.565c-3.162-.254-5.166-2.559-7.66-4.191-6.5-4.256-19.3-3.159-26.31-1.09-6.945,2.053-15.268,6.672-18.64,13.252a3.584,3.584,0,0,0,2.621,5.277c3.49,7.3,20.74,12.7,26.565,11.435,5.461-1.186,7.214-4.372,6.686-7.913a26.389,26.389,0,0,0,10.757-2.291,3.207,3.207,0,0,0,2.051.2c5.195-1.244,9.81-4.512,9.991-10.112A4.557,4.557,0,0,0,546.315,386Z" fill="#604939"/>
            <path id="Path_213" data-name="Path 213" d="M489.509,399.425c.182-1.525-2.258-2.133-2.9-.783a36.434,36.434,0,0,0-3.382,13.582,45.053,45.053,0,0,0,.54,25.292,2.023,2.023,0,0,0,3.868,0C491.016,424.8,487.985,412.216,489.509,399.425Z" fill="#604939"/>
            <path id="Path_214" data-name="Path 214" d="M508.732,490.064c-.47-1.812-.875-3.636-1.341-5.448a3.494,3.494,0,0,0-.358-.864c-.828-5.88-2.96-11.908-3.52-17.659a2.618,2.618,0,0,0-.745-1.54,1.471,1.471,0,0,0-1.7-1.054c-8.644,1.458-15.078,11.67-19.668,18.313-1.941,2.811-3.057,4.456-1.683,7.64,1.478,3.42,5.563,6.989,8.172,9.507,4.944,4.765,11.694,6.079,16.186-.116a17.124,17.124,0,0,0,1.487-2.517,3.045,3.045,0,0,0,1.133-1.371c.182-.41.344-.794.5-1.176A3.168,3.168,0,0,0,508.732,490.064Z" fill="#efdb67"/>
            <path id="Path_215" data-name="Path 215" d="M553.782,480.513a2.367,2.367,0,0,0,.141-2.012c.306-7.072-4.091-12.1-6.367-18.59-.042-.126-.086-.254-.127-.378-.14-.409-.271-.819-.387-1.24a2.182,2.182,0,0,0-3.321-1.2,1.344,1.344,0,0,0-.906,1.053,2.107,2.107,0,0,0-.035,1.315c.007.028.016.057.023.084v.007a1.76,1.76,0,0,0-.328,1.313,13.21,13.21,0,0,0,.284,1.547,16.8,16.8,0,0,1-1.325,6.054,26.279,26.279,0,0,0-3.321,3.186,25.91,25.91,0,0,1-3.72,1.026c-1.74-.157-3.5-.194-5.225-.5-2.743-.487-4.007-4.5-5.486-6.411-1.661-2.146-5.79-1.041-4.776,2,1.588,4.758,2.5,10.135,5.5,14.254.189.67.371,1.34.54,2.017.006.019.015.036.022.057.132,2.492,1.268,3.927,2.926,4.612a1.961,1.961,0,0,0,.547.361c3.828,1.64,7.808.864,11.57-.577a19.1,19.1,0,0,0,6.451-2.183,10.868,10.868,0,0,0,6.539-4.538,2.3,2.3,0,0,0,.62-.99C553.676,480.7,553.733,480.607,553.782,480.513Z" fill="#efdb67"/>
            <path id="Path_216" data-name="Path 216" d="M581.192,433.619c-6.5-2.088-16.861,1.476-20.357,7.494-2.375,4.1.579,8.336,3.363,12.255a59.431,59.431,0,0,0,6.71,12.739,2.071,2.071,0,0,0,2.746.716c4.944-2.512,11.027-5.728,14.211-10.606a2.509,2.509,0,0,0,.6-.987,12.77,12.77,0,0,0,1.408-4.072C590.789,445.514,587.171,435.541,581.192,433.619Z" fill="#efdb67"/>
          </g>
          <path id="Path_217" data-name="Path 217" d="M613.808,402.938c-4.741,6.624-8.488,13.68-13.714,20.018-5.927,7.192-12.956,11.788-20.363,17.181a1.546,1.546,0,0,0,1.191,2.812c8.046-1.976,15.194-9.554,20.557-15.448,5.907-6.49,12.581-14.992,14.028-23.848A.934.934,0,0,0,613.808,402.938Z" fill="#3e251c"/>
          <path id="Path_218" data-name="Path 218" d="M622.928,400a1.254,1.254,0,0,0-1.823-1.395,39.284,39.284,0,0,0-4.039,2.156,13.732,13.732,0,0,0,.316-5.439c-.1-.735-1.1-.834-1.556-.41a16.579,16.579,0,0,0-4.186,7.234,7.953,7.953,0,0,0-2.59-3.655c-1.077-.831-2.889-.422-2.864,1.182.064,3.527,1.816,6.106,3.272,9.038a1.554,1.554,0,0,0,1.406,2.254,25.9,25.9,0,0,0,8.241-1.506c.91-.357,2.37-.818,2.67-1.9.383-1.39-.7-1.917-2.263-2.022A9.338,9.338,0,0,0,622.928,400Z" fill="#3e251c"/>
          <path id="Path_219" data-name="Path 219" d="M510.308,462.735s-8.241-1.743-16.736,4.477-15.739,21.394-15.739,21.394,14.989,16.914,19.236,15.173,12.741-13.929,12.741-13.929" fill="none" stroke="#492a20" stroke-linecap="round" stroke-linejoin="round" stroke-width="3.632"/>
          <path id="Path_220" data-name="Path 220" d="M486.576,440.345s-3.746-3.482-8.743.995,2.216,16.811,9.743,13.743c5.5-2.238,4.994-5.534,4.994-5.534s14.073,22.83,42.72,12.189c19.926-7.4,24.236-29.415,22.922-37.625s-4.5-17.165-11.99-27.239" fill="none" stroke="#492a20" stroke-linecap="round" stroke-linejoin="round" stroke-width="3.632"/>
          <path id="Path_221" data-name="Path 221" d="M488.888,396.316s3.558,38.808-3.186,43.47" fill="none" stroke="#492a20" stroke-linecap="round" stroke-linejoin="round" stroke-width="3.632"/>
          <path id="Path_222" data-name="Path 222" d="M483.828,439.228s-7.12-26.121,6.37-44.963,36.537-20.335,52.089-8.769c0,0-22.247-24.757-51.9-.186-23.42,19.4-8.619,53.918-8.619,53.918" fill="none" stroke="#492a20" stroke-linecap="round" stroke-linejoin="round" stroke-width="3.632"/>
          <path id="Path_223" data-name="Path 223" d="M489.45,395.942s17.237,14.926,31.853,12.314,0-18.47-3.935-15.3,23.966,16.828,32.414-1.121c2.811-5.969-7.494-6.343-7.494-6.343" fill="none" stroke="#492a20" stroke-linecap="round" stroke-linejoin="round" stroke-width="3.632"/>
          <path id="Path_224" data-name="Path 224" d="M506,431.018a3.06,3.06,0,1,0-3.062,3.047A3.054,3.054,0,0,0,506,431.018Z" fill="#3e251c"/>
          <path id="Path_225" data-name="Path 225" d="M538.789,414.972a3.06,3.06,0,1,0-3.059,3.049A3.052,3.052,0,0,0,538.789,414.972Z" fill="#3e251c"/>
          <path id="Path_226" data-name="Path 226" d="M510.246,426.912s6,5.971,13.491,2.054c6.606-3.453,2.249-11.2,2.249-11.2" fill="none" stroke="#492a20" stroke-linecap="round" stroke-linejoin="round" stroke-width="3.632"/>
          <path id="Path_227" data-name="Path 227" d="M478.395,487.734c-6.371-1.306-1.686-13.059-1.686-13.059s-8.995,14.178-19.3,5.223c-12.642-10.986,2.657-24.286,2.811-20.335.186,4.851-11.994,8.954-17.238-2.612s12.553-19.219,12.74-15.112-18.362,9.328-13.865-11.008,28.481-13.806,20.424-9.141-17.988-5.039-9.746-19.032,22.3-7.089,22.3-7.089-9.994-18.409,2.5-29.357,33.477,2.491,28.979,5.974-9.242-14.432,9.994-19.407,20.985,16.67,17.736,16.67.5-16.92,17.238-12.442,5.246,22.145,5.246,22.145,11.492-14.183,20.734-1.493-1.249,25.124-5.244,22.139S583.2,386.416,588.5,398.8c7.246,16.917-10.492,21.891-10.492,21.891s6.745,2.985,3.5,12.934" fill="none" stroke="#492a20" stroke-linecap="round" stroke-linejoin="round" stroke-width="3.632"/>
          <path id="Path_228" data-name="Path 228" d="M553.031,446.317s22.483-15.425,25.23-14.678S588.9,441.322,590,452.285c.5,4.975-17.735,15.672-17.735,15.672" fill="none" stroke="#492a20" stroke-linecap="round" stroke-linejoin="round" stroke-width="3.632"/>
          <path id="Path_229" data-name="Path 229" d="M503.313,462.735s8.5,34.328,9.745,60.7c1.235,26.1-4.974,59.072-4.246,60.2,2.248,3.482,30.726,5.471,38.719-3.233,0,0-1.749-16.667-4.745-29.851,0,0,14.241-1.741,24.231-10.448" fill="none" stroke="#492a20" stroke-linecap="round" stroke-linejoin="round" stroke-width="3.632"/>
          <path id="Path_230" data-name="Path 230" d="M561.523,544.078s7.325,33.566,9.491,34.824c3,1.743,32.479-8.458,33.228-17.908s-27.229-88.556-45.718-117.912" fill="none" stroke="#492a20" stroke-linecap="round" stroke-linejoin="round" stroke-width="3.632"/>
          <path id="Path_231" data-name="Path 231" d="M519.3,464.225s6,25.87,8.746,26.121,24.23-3.981,25.98-8.459-7.995-26.368-7.995-26.368" fill="none" stroke="#492a20" stroke-linecap="round" stroke-linejoin="round" stroke-width="3.632"/>
          <path id="Path_232" data-name="Path 232" d="M521.8,464.476s6,10.7,14.491,7.96,6.495-13.93,6.495-13.93" fill="none" stroke="#492a20" stroke-linecap="round" stroke-linejoin="round" stroke-width="3.632"/>
          <g id="Group_17" data-name="Group 17">
            <path id="Path_233" data-name="Path 233" d="M520.619,493.089l-.061.048C521.07,492.8,520.782,492.959,520.619,493.089Z" fill="#3e251c"/>
            <path id="Path_234" data-name="Path 234" d="M521.087,492.695a2.792,2.792,0,0,0,.036-3.849,6.134,6.134,0,0,0-2.134-1.438,2.952,2.952,0,0,0-3.44.444,3.119,3.119,0,0,0-1.016,1.928,2.819,2.819,0,0,0-.553,2.57,2.9,2.9,0,0,0,1.7,1.856,1.975,1.975,0,0,0,1.347.339c.042,0,.083.017.122.019a4.944,4.944,0,0,0,2.466-.761,7.065,7.065,0,0,0,.941-.665c-.044.03-.086.055-.143.094A3.729,3.729,0,0,0,521.087,492.695Z" fill="#3e251c"/>
          </g>
          <path id="Path_235" data-name="Path 235" d="M565.824,473.825c0-.032-.009-.059-.015-.091v-.057a3.029,3.029,0,0,0-1.5-2.609,3.136,3.136,0,0,0-3.679.474,3,3,0,0,0-.75.954,3.76,3.76,0,0,0-.827,1.68c.032-.052.063-.106.1-.157a2.889,2.889,0,0,0,2.281,3.813c1.559.229,3.314.1,4.227-1.419A2.947,2.947,0,0,0,565.824,473.825Z" fill="#3e251c"/>
          <path id="Path_236" data-name="Path 236" d="M529.8,497.063c-1.246.1,4.563,20.285,8.992,22.387,5.247,2.489,21.736-1.988,24.234-7.959,1.562-3.736-3.5-24.379-5.495-23.135C551.967,491.818,536.043,496.564,529.8,497.063Z" fill="none" stroke="#492a20" stroke-linecap="round" stroke-linejoin="round" stroke-width="3.632"/>
          <path id="Path_237" data-name="Path 237" d="M490.927,383.854c-1.487-3.788-7.648-6.992-10.856-3.408-1.59,1.777-1.29,4.033-.1,5.925,1.072,1.7,3.256,3.384,5.294,2.508a.246.246,0,0,0,.051-.384c-1.718-1.721-6.827-4.975-2.98-7.405,2.414-1.527,5.882,2.356,7.767,3.4C490.5,384.7,491.118,384.338,490.927,383.854Z" fill="#3e251c"/>
          <path id="Path_238" data-name="Path 238" d="M496.438,373.327c-1.095-2.192-3.289-3.152-5.519-1.919-2.414,1.335-2.781,4.407-2.565,6.836.17,1.94.5,5.583,2.5,6.617a.575.575,0,0,0,.826-.336,8.009,8.009,0,0,0,.022-3.684,16.267,16.267,0,0,1,.109-5.035c.323-1.654,1.334-1.811,2.509-.85,1.315,1.079,1.337,2.853,1.355,4.382a.9.9,0,0,0,1.67.451C498.34,377.827,497.35,375.15,496.438,373.327Z" fill="#3e251c"/>
          <path id="Path_239" data-name="Path 239" d="M510.337,438.311a4.011,4.011,0,0,0-4.234-2.737c-2.337.1-4.429,1.448-4.653,3.9a4.245,4.245,0,0,0,.4,2.1,3.391,3.391,0,0,0,1.782,2.357,4.252,4.252,0,0,0,2.7.477,4.593,4.593,0,0,0,3.5-2.188,3.54,3.54,0,0,0,.555-1.758A4.574,4.574,0,0,0,510.337,438.311Z" fill="#8c4b3e"/>
          <path id="Path_240" data-name="Path 240" d="M538.819,419.681a6.854,6.854,0,0,0-1.386.942,4.244,4.244,0,0,0-.025,6.131c3.073,3.068,9.229.094,9.416-4C547.022,418.446,541.421,417.016,538.819,419.681Z" fill="#8c4b3e"/>
        </g>
      </g>
      <path id="Path_241" data-name="Path 241" d="M633.227,347.2c-3.439-2.441-8.13-.061-10.739,2.362-.028.026-.052.055-.08.081a28.148,28.148,0,0,0-2.085-9.451c-.919-2.091-4-1.685-5.033,0-5.914,9.639-4.3,23.387,3.255,31.661a3.052,3.052,0,0,0,3.724.478C628.226,368.152,643.915,354.787,633.227,347.2Zm-3.766,9.4a21.7,21.7,0,0,1-5.754,6.959c.9-4.632,2.439-11.153,6.065-10.511C630.614,353.2,630.119,355.216,629.461,356.6Z" fill="#ffe659"/>
      <path id="Path_242" data-name="Path 242" d="M281.584,130.986a3.418,3.418,0,0,0-.392-.4,16.041,16.041,0,0,1,.239-3.7A29.264,29.264,0,0,1,281.584,130.986Z" fill="#8dc6a1"/>
      <path id="Path_243" data-name="Path 243" d="M638.729,455.725c-.7-2.856-3.988-3.133-5.981-1.573a24.138,24.138,0,0,0-6.766,8.466c-1.325-5.078-3.631-9.832-7.794-13.091-1.54-1.206-4.129-1.411-5.158.661-1.918,3.859-1.912,8.492-1.294,12.926a3.417,3.417,0,0,0,.648,3.73c.173.857.357,1.7.54,2.507,1.4,6.2,4.158,13.217,10.777,15.176C637.742,488.681,640.848,464.348,638.729,455.725Zm-17.4,9.877a17.687,17.687,0,0,0-2.728-2.889,30.49,30.49,0,0,1-.377-4.08A29.88,29.88,0,0,1,621.325,465.6Z" fill="#ea5653"/>
      <path id="Path_244" data-name="Path 244" d="M408.323,81.979c-.192.242-.376.493-.563.739-.032-.071-.061-.144-.093-.215q-.62-1.307-1.232-2.618c-.4-.86-.593-2.856-1.012-1.231a3.044,3.044,0,0,0,.006-1.522c.665.858,1.254,1.78,1.816,2.654C407.407,80.041,407.844,80.963,408.323,81.979Z" fill="#ea5653"/>
      <path id="Path_245" data-name="Path 245" d="M658.98,411.69c-.6-2.839-4.339-3.278-6.494-2.041-3.062,1.758-5.123,5.441-6.533,9.329-1.463-4.343-4.427-8.171-8.408-8.9a1.814,1.814,0,0,0-2.2,1.242,21.62,21.62,0,0,0-.428,3.2,2.594,2.594,0,0,0-.877,2.585,20.382,20.382,0,0,0,2.051,5.819,13.426,13.426,0,0,0,5.943,7.178c7.143,4,12.879-4.214,15.274-9.775C658.466,417.647,659.6,414.636,658.98,411.69Zm-3.847,1.124a1.652,1.652,0,0,1,.2,1.083,2.481,2.481,0,0,0-.78-.651C654.915,413.069,655.218,412.928,655.133,412.814Zm-12.7,6.173a34.874,34.874,0,0,0-3.915-4.12c.006-.21.016-.416.032-.621A11.148,11.148,0,0,1,642.433,418.987Z" fill="#adca42"/>
    </g>
  </g>
</svg>
