<svg xmlns="http://www.w3.org/2000/svg" width="60" height="57" viewBox="0 0 60 57">
  <g id="Vector_Smart_Object" data-name="Vector Smart Object" transform="translate(-209.999 -214.766)">
    <path id="Path_1" data-name="Path 1" d="M246,235.066a8,8,0,1,1-14.579-4.608,7.939,7.939,0,0,1,6.39-3.511H238a7.993,7.993,0,0,1,1.01.061,2.988,2.988,0,0,0,2.8,1.969h1.48A8.146,8.146,0,0,1,246,235.066Z" fill="#ffd422"/>
    <path id="Path_2" data-name="Path 2" d="M223.313,267.972l-2.09.771-5.43,2.01L211,257.4l5.429-2.01,2.09-.771Z" fill="#5aaae7"/>
    <path id="Path_3" data-name="Path 3" d="M230.482,264.236l.69,1.909-7.519,2.78-.34-.954-4.79-13.357-.34-.954,7.509-2.77.69,1.907Z" fill="#1e81ce"/>
    <path id="Path_4" data-name="Path 4" d="M269,215.781v16.239h-6V215.781Z" fill="#3d9ae2"/>
    <path id="Path_5" data-name="Path 5" d="M249.86,254.919l7.19-2.648a2.883,2.883,0,0,1,2.289.1,3.063,3.063,0,0,1-.239,5.613l-17.849,6.6-2.82,1.044-6.069-2.08-1.88.689-4.1-11.439,7.47-2.76,2.329.416,11.26,2.019a3.014,3.014,0,0,1,2.3,1.959A2.646,2.646,0,0,1,249.86,254.919Z" fill="#ffdaaa"/>
    <path id="Path_6" data-name="Path 6" d="M263,218.827v10.15H260.81c0,2.242-3,4.059-6,4.059s-6-1.817-6-4.059h-7a2.988,2.988,0,0,1-2.8-1.969,7.993,7.993,0,0,0-1.01-.061h-.189a7.939,7.939,0,0,0-6.39,3.511,2.814,2.814,0,0,1-1-.953,3.028,3.028,0,0,1,.49-3.685l8.139-8.253a5.932,5.932,0,0,1,4.24-1.786H253.81l7,3.045Z" fill="#ffdaaa"/>
    <path id="Path_7" data-name="Path 7" d="M261,218.827h2v10.15h-2Z" fill="#f1cfa2"/>
    <path id="Path_8" data-name="Path 8" d="M223.313,267.972l-2.09.771-4.7-13.114-.09-.244,2.09-.771Z" fill="#3d9ae2"/>
    <path id="Path_9" data-name="Path 9" d="M269,214.766h-6a1.008,1.008,0,0,0-1,1.015v2.03h-.984l-6.815-2.963a.975.975,0,0,0-.39-.082H243.291a6.969,6.969,0,0,0-4.947,2.082L230.2,225.1a4.054,4.054,0,0,0-.619,4.96,4.16,4.16,0,0,0,.533.647,9.176,9.176,0,0,0,4.987,13.028,8.922,8.922,0,0,0,10.044-3.095,9.247,9.247,0,0,0,.323-10.649h2.483c.715,2.435,3.93,4.059,6.852,4.059s6.137-1.624,6.853-4.059H262v2.029a1.007,1.007,0,0,0,1,1.015h6a1.007,1.007,0,0,0,1-1.015V215.781A1.008,1.008,0,0,0,269,214.766Zm-24,20.3a7,7,0,1,1-12.754-4.034,6.947,6.947,0,0,1,5.565-3.071H238c.125,0,.248.016.373.022a3.89,3.89,0,0,0,3.432,2.008h1.079A7.14,7.14,0,0,1,245,235.066Zm15.8-7.1a1.007,1.007,0,0,0-1,1.015c0,1.537-2.475,3.044-5,3.044s-5-1.507-5-3.044a1.007,1.007,0,0,0-1-1.015h-7a2.03,2.03,0,0,1,0-4.06h11v-2.03h-11a4.031,4.031,0,0,0-4,4.06h-.016a8.947,8.947,0,0,0-6.5,3.056c-.008-.01-.018-.018-.026-.03a2.015,2.015,0,0,1,.355-2.419l8.142-8.257a4.962,4.962,0,0,1,3.53-1.485H253.6l6.81,2.962a.981.981,0,0,0,.395.082H262v8.121Zm7.2,3.044h-4V216.8h4Z"/>
    <path id="Path_10" data-name="Path 10" d="M237,232.021h2a1.007,1.007,0,0,1,1,1.015h2a3.022,3.022,0,0,0-3-3.044v-1.015h-2v1.015a3.045,3.045,0,0,0,0,6.089h2a1.015,1.015,0,0,1,0,2.03h-2a1.007,1.007,0,0,1-1-1.015h-2a3.023,3.023,0,0,0,3,3.045v1.015h2v-1.015a3.046,3.046,0,0,0,0-6.09h-2a1.015,1.015,0,0,1,0-2.03Z"/>
    <path id="Path_11" data-name="Path 11" d="M259.764,251.449a3.911,3.911,0,0,0-3.057-.137l-6.233,2.3a4.021,4.021,0,0,0-2.863-2.146l-13.589-2.436a.954.954,0,0,0-.514.046l-6.531,2.413-.343-.954a.994.994,0,0,0-1.28-.609l-7.518,2.783a1.02,1.02,0,0,0-.6,1.3l-6.577,2.436a1.019,1.019,0,0,0-.6,1.3l4.794,13.35a1,1,0,0,0,.939.668.953.953,0,0,0,.341-.059l6.578-2.436a1.01,1.01,0,0,0,.516.575.986.986,0,0,0,.765.035l7.517-2.778a1.02,1.02,0,0,0,.6-1.3l-.342-.954.61-.224,5.733,1.965a1,1,0,0,0,.663-.008l2.818-1.041,17.853-6.6a4.083,4.083,0,0,0,.322-7.492Zm-37.737,15.915-5.638,2.083L212.285,258l5.638-2.086Zm2.222.26-4.789-13.353,5.643-2.082,4.788,13.351Zm34.509-10.589-20.342,7.511-5.733-1.965a.988.988,0,0,0-.662.007l-.94.348-3.42-9.541,6.279-2.319,13.325,2.385a1.987,1.987,0,0,1,1.535,1.313,2.972,2.972,0,0,1,.085.356,1.9,1.9,0,0,1,.009.688,2.013,2.013,0,0,1-2.32,1.652l-11.26-2.016-.347,2,11.258,2.015a4.017,4.017,0,0,0,4.635-3.307,4.141,4.141,0,0,0,.042-.545l6.489-2.4a1.994,1.994,0,0,1,2.564,1.214A2.04,2.04,0,0,1,258.758,257.035Z"/>
  </g>
</svg>
