<svg xmlns="http://www.w3.org/2000/svg" width="60" height="76" viewBox="0 0 60 76">
  <g id="Vector_Smart_Object" data-name="Vector Smart Object" transform="translate(-226.001 -220.025)">
    <ellipse id="Ellipse_1" data-name="Ellipse 1" cx="19.265" cy="24.986" rx="19.265" ry="24.986" transform="translate(246.321 227.983)" fill="#00c3ff"/>
    <path id="Path_12" data-name="Path 12" d="M249.261,252.969c0-13.158,7.842-23.941,17.794-24.914q-.727-.071-1.47-.072c-10.64,0-19.265,11.187-19.265,24.986s8.625,24.987,19.265,24.987c.495,0,.985-.025,1.47-.073C257.1,276.91,249.261,266.128,249.261,252.969Z" fill="#06b0f2"/>
    <path id="Path_13" data-name="Path 13" d="M264.894,277.807h1.382a2.773,2.773,0,0,1,2.754,2.776v2.194a.459.459,0,0,1-.457.461H262.6a.459.459,0,0,1-.457-.461v-2.194A2.773,2.773,0,0,1,264.894,277.807Z" fill="#00c3ff"/>
    <path id="Path_14" data-name="Path 14" d="M265.086,282.777v-2.194a2.781,2.781,0,0,1,1.972-2.659,2.711,2.711,0,0,0-.782-.117h-1.382a2.773,2.773,0,0,0-2.754,2.776v2.194a.459.459,0,0,0,.457.461h2.946A.459.459,0,0,1,265.086,282.777Z" fill="#06b0f2"/>
    <path id="Path_15" data-name="Path 15" d="M247.011,270.916h-1.382a2.773,2.773,0,0,0-2.754,2.776v2.194a.459.459,0,0,0,.457.461h5.976a.459.459,0,0,0,.457-.461v-2.194A2.773,2.773,0,0,0,247.011,270.916Z" fill="#ffc850"/>
    <path id="Path_16" data-name="Path 16" d="M245.821,275.886v-2.194a2.781,2.781,0,0,1,1.972-2.659,2.708,2.708,0,0,0-.781-.117h-1.383a2.774,2.774,0,0,0-2.754,2.776v2.194a.46.46,0,0,0,.458.461h2.945A.459.459,0,0,1,245.821,275.886Z" fill="#f9b938"/>
    <path id="Path_17" data-name="Path 17" d="M246.32,252.969c0-11.436,5.923-21.076,14.007-24.045-3.512-4.823-8.488-7.832-14.007-7.832-10.639,0-19.264,11.187-19.264,24.986s8.625,24.987,19.264,24.987a15.191,15.191,0,0,0,5.258-.942A29.249,29.249,0,0,1,246.32,252.969Z" fill="#ffc850"/>
    <path id="Path_18" data-name="Path 18" d="M230,246.078c0-13.154,7.838-23.935,17.787-24.913-.484-.047-.974-.073-1.468-.073-10.639,0-19.264,11.187-19.264,24.986s8.625,24.987,19.264,24.987c.493,0,.98-.026,1.463-.074C237.836,270.01,230,259.23,230,246.078Z" fill="#f9b938"/>
    <path id="Path_19" data-name="Path 19" d="M270.709,246.9a5.183,5.183,0,0,0-4.471,2.637.8.8,0,0,1-1.322-.009,5.123,5.123,0,0,0-9.581,2.554c.006,5.778,5.061,10.34,10.027,12.7a.544.544,0,0,0,.47,0,23.891,23.891,0,0,0,4.909-3.189c3.383-2.865,5.1-6.074,5.094-9.535A5.153,5.153,0,0,0,270.709,246.9Z" fill="#ff80bd"/>
    <path id="Path_20" data-name="Path 20" d="M258.281,252.081a5.149,5.149,0,0,1,1.5-3.654,5.1,5.1,0,0,1,2.148-1.3,5.074,5.074,0,0,0-5.093,1.3,5.155,5.155,0,0,0-1.5,3.654c.006,5.778,5.061,10.34,10.028,12.7a.544.544,0,0,0,.234.053.553.553,0,0,0,.236-.053c.273-.131.7-.347,1.226-.642C262.529,261.646,258.286,257.374,258.281,252.081Z" fill="#f66fb2"/>
    <path id="Path_21" data-name="Path 21" d="M268.4,227.155a1.113,1.113,0,0,0-.375,2.194c8.991,1.559,15.77,11.733,15.77,23.666,0,13.164-8.147,23.873-18.16,23.873s-18.16-10.724-18.16-23.873c0-10.469,5.731-21.924,15.77-23.666a1.113,1.113,0,0,0-.375-2.194,16.16,16.16,0,0,0-2.093.509c-7.87-10.073-20.849-10.334-28.9.109-11.386,14.768-5.33,40.046,10.583,43.974a3.89,3.89,0,0,0-.638,2.14v2.193a1.57,1.57,0,0,0,1.562,1.574h1.883V288.02a1.1,1.1,0,1,0,2.209,0V277.654h1.883a1.569,1.569,0,0,0,1.562-1.574v-2.193a3.888,3.888,0,0,0-.642-2.145c.319-.08.636-.166.95-.264a19.308,19.308,0,0,0,10.5,7.16,3.89,3.89,0,0,0-.638,2.14v2.193a1.57,1.57,0,0,0,1.562,1.574h1.883v10.366a1.1,1.1,0,1,0,2.209,0V284.545h1.883a1.57,1.57,0,0,0,1.562-1.574v-2.193a3.89,3.89,0,0,0-.638-2.14C279.029,276.3,286,265.594,286,253.015,286,239.985,278.5,228.907,268.4,227.155Zm-40.189,18.97c0-13.164,8.146-23.873,18.16-23.873,4.584,0,8.887,2.208,12.242,6.254-8.842,4.167-13.347,14.749-13.347,24.509a30.807,30.807,0,0,0,4.6,16.539C238.575,272.457,228.207,261.02,228.207,246.125Zm18.851,26.1a1.657,1.657,0,0,1,1.649,1.662v1.541h-4.681v-1.541a1.658,1.658,0,0,1,1.649-1.662Zm19.264,6.89a1.657,1.657,0,0,1,1.649,1.663v1.541h-4.68v-1.541a1.658,1.658,0,0,1,1.649-1.663Z"/>
    <path id="Path_22" data-name="Path 22" d="M256.1,247.687a6.259,6.259,0,0,0-1.822,4.441c.006,6.372,5.511,11.259,10.66,13.709a1.642,1.642,0,0,0,1.415,0c3.915-1.873,8.628-5.569,10.115-10.326a1.116,1.116,0,0,0-.722-1.4,1.1,1.1,0,0,0-1.385.728c-1.245,3.983-5.273,7.165-8.717,8.868-4.468-2.191-9.152-6.343-9.157-11.582a4.019,4.019,0,0,1,7.516-2,2.04,2.04,0,0,0,1.683.914,1.981,1.981,0,0,0,1.588-.944,4,4,0,0,1,7.144.348,1.1,1.1,0,0,0,1.463.551,1.118,1.118,0,0,0,.548-1.475,6.2,6.2,0,0,0-10.8-.961A6.2,6.2,0,0,0,256.1,247.687Z"/>
  </g>
</svg>
