<svg xmlns="http://www.w3.org/2000/svg" width="60" height="66" viewBox="0 0 60 66">
  <g id="Vector_Smart_Object" data-name="Vector Smart Object" transform="translate(-226 -226.687)">
    <g id="Group_4" data-name="Group 4">
      <path id="Path_23" data-name="Path 23" d="M275.876,255.855c-.127,0-.253,0-.378.01a9.321,9.321,0,0,0-1.882,18.31,9.023,9.023,0,0,0,2.26.286,9.3,9.3,0,0,0,0-18.606Zm0,14.268a4.719,4.719,0,0,1-.8-.067,4.973,4.973,0,0,1,.421-9.847c.125-.009.251-.014.378-.014a4.964,4.964,0,0,1,0,9.928Z" fill="#fee6cc"/>
      <path id="Path_24" data-name="Path 24" d="M270.983,265.159a4.944,4.944,0,0,0,4.094,4.9,17.626,17.626,0,0,1-1.461,4.12,9.321,9.321,0,0,1,1.882-18.31v4.344A4.935,4.935,0,0,0,270.983,265.159Z" fill="#fcce99"/>
      <path id="Path_25" data-name="Path 25" d="M273.131,254.5v11.486a17.693,17.693,0,0,1-17.314,17.88A17.2,17.2,0,0,1,250,282.9a17.638,17.638,0,0,1-11.485-13.65,18.005,18.005,0,0,1-.263-3.075V254.5a1.269,1.269,0,0,1,1.259-1.277h32.361A1.269,1.269,0,0,1,273.131,254.5Z" fill="#fee6cc"/>
      <g id="Group_1" data-name="Group 1">
        <path id="Path_26" data-name="Path 26" d="M250.713,281.783A7.421,7.421,0,0,1,250,282.9a17.639,17.639,0,0,1-11.485-13.65,5.7,5.7,0,0,1,1.221.626,5.979,5.979,0,0,1,2.117,2.6,10.959,10.959,0,0,1,1.7-.137c3.952,0,7.149,2.225,7.772,5.409A6.148,6.148,0,0,1,250.713,281.783Z" fill="#fcce99"/>
        <path id="Path_27" data-name="Path 27" d="M273.131,262.53v3.646a17.441,17.441,0,1,1-34.879,0V262.53a17.441,17.441,0,1,0,34.879,0Z" fill="#fcce99"/>
        <rect id="Rectangle_1" data-name="Rectangle 1" width="27.897" height="4.654" transform="translate(241.743 287.067)" fill="#fcce99"/>
      </g>
      <path id="Path_28" data-name="Path 28" d="M248.644,280.688a7.15,7.15,0,0,1-5,3.393c-3.477.7-6.7-.788-7.2-3.329,0-.021-.007-.043-.011-.064-.446-2.519,1.959-5.108,5.4-5.8,3.476-.7,6.7.789,7.2,3.329A3.771,3.771,0,0,1,248.644,280.688Z" fill="#e2780e"/>
      <g id="Group_2" data-name="Group 2">
        <path id="Path_29" data-name="Path 29" d="M248.644,280.688a7.15,7.15,0,0,1-5,3.393c-3.477.7-6.7-.788-7.2-3.329,0-.021-.007-.043-.011-.064Z" fill="#a85000"/>
        <path id="Path_30" data-name="Path 30" d="M243.644,284.081c-3.475.7-6.7-.789-7.194-3.328a3.483,3.483,0,0,1-.046-1.023c1.023,1.939,3.843,2.973,6.852,2.367s5.223-2.657,5.438-4.845a3.413,3.413,0,0,1,.342.963C249.534,280.754,247.12,283.38,243.644,284.081Z" fill="#a85000"/>
      </g>
      <path id="Path_31" data-name="Path 31" d="M238.716,279.861a9.361,9.361,0,0,1-.615.827c-1.992,2.382-4.879,3.279-6.792,1.98a3.708,3.708,0,0,1-1.431-1.98,7.31,7.31,0,0,1,1.154-6.036c1.969-2.989,5.285-4.245,7.407-2.807S240.685,276.873,238.716,279.861Z" fill="#e2780e"/>
      <g id="Group_3" data-name="Group 3">
        <path id="Path_32" data-name="Path 32" d="M238.1,280.688c-1.992,2.382-4.879,3.279-6.792,1.98a3.708,3.708,0,0,1-1.431-1.98Z" fill="#a85000"/>
        <path id="Path_33" data-name="Path 33" d="M238.716,279.861c-1.969,2.988-5.286,4.245-7.408,2.807a3.374,3.374,0,0,1-.745-.69c2.075.637,4.79-.654,6.495-3.241s1.841-5.625.468-7.326a3.329,3.329,0,0,1,.913.434C240.561,273.284,240.685,276.873,238.716,279.861Z" fill="#a85000"/>
      </g>
      <path id="Path_34" data-name="Path 34" d="M226.952,282.9v2.312l14.741,2.84h28l14.741-2.84V282.9Z" fill="#fee6cc"/>
      <path id="Path_35" data-name="Path 35" d="M284.432,281.931h-9.2a.967.967,0,0,0,0,1.933h8.249v.545L269.6,287.083H241.783l-13.877-2.674v-.545h43.783a.967.967,0,0,0,0-1.933h-6.147a18.613,18.613,0,0,0,6.53-7.253,9.9,9.9,0,0,0,3.805.751,10.27,10.27,0,0,0,0-20.539,10.06,10.06,0,0,0-1.793.162V254.5a2.231,2.231,0,0,0-2.213-2.244h-4.507a.967.967,0,0,0,0,1.933h4.507a.308.308,0,0,1,.306.31v1.643H239.205V254.5a.308.308,0,0,1,.306-.31h24.312a.967.967,0,0,0,0-1.933H239.511A2.23,2.23,0,0,0,237.3,254.5v11.677a18.935,18.935,0,0,0,.5,4.307,5.986,5.986,0,0,0-5.087,1.07.976.976,0,0,0-.248,1.344.944.944,0,0,0,1.325.252,4.31,4.31,0,0,1,3.224-.872l-3.471,5.268a.975.975,0,0,0,.262,1.341.944.944,0,0,0,1.322-.266l3.473-5.271a3.816,3.816,0,0,1,.567,2.08h0v.005a7.086,7.086,0,0,1-1.239,3.89,7.538,7.538,0,0,1-1.629,1.791,5.991,5.991,0,0,1-1.342.815h-3.011c-.035-.021-.069-.043-.1-.066-1.587-1.075-1.687-3.856-.229-6.33a.974.974,0,0,0-.328-1.326.945.945,0,0,0-1.307.334,8.791,8.791,0,0,0-1.279,4.948,5.759,5.759,0,0,0,.685,2.439h-2.427a.96.96,0,0,0-.953.968v2.312a.964.964,0,0,0,.775.951l14.015,2.7v2.862a.96.96,0,0,0,.953.967h27.9a.96.96,0,0,0,.953-.967v-2.862l14.016-2.7a.965.965,0,0,0,.776-.951V282.9A.96.96,0,0,0,284.432,281.931ZM274.084,261.6a3.877,3.877,0,0,1,1.793-.44,4,4,0,0,1,0,7.995,3.865,3.865,0,0,1-1.951-.525,19.213,19.213,0,0,0,.157-2.455V261.6Zm1.793-4.778a8.337,8.337,0,0,1,0,16.672,8.027,8.027,0,0,1-3.022-.585,18.83,18.83,0,0,0,.709-2.3,5.76,5.76,0,0,0,2.313.483,5.932,5.932,0,0,0,0-11.862,5.765,5.765,0,0,0-1.793.285v-2.488A8.086,8.086,0,0,1,275.877,256.823Zm-3.7,1.253v8.1A16.741,16.741,0,0,1,267.35,278a16.574,16.574,0,0,1-6.117,3.929H250.152c-.307-.112-.613-.23-.915-.361a4.888,4.888,0,0,0,.735-3.539v0l0-.005a5.043,5.043,0,0,0-3.018-3.565,8.643,8.643,0,0,0-5.3-.519q-.257.052-.508.118a16.907,16.907,0,0,1-1.943-7.879v-8.1ZM239.508,280.4a9.283,9.283,0,0,0,1.534-4.3,7.845,7.845,0,0,1,.985-.269c2.425-.489,4.764.252,5.7,1.66l-6.125,1.236a.968.968,0,0,0,.185,1.915.915.915,0,0,0,.187-.019l6.128-1.236a3.765,3.765,0,0,1-1.031,1.859l0,0a5.76,5.76,0,0,1-.785.677h-8.014A9.7,9.7,0,0,0,239.508,280.4Zm29.179,10.355H242.7v-1.738h25.991Z"/>
      <path id="Path_36" data-name="Path 36" d="M258.185,246.009a.974.974,0,0,0-.3,1.333.945.945,0,0,0,1.314.3,6.684,6.684,0,0,0,1.036-10.4,6.684,6.684,0,0,0-1.036-10.4.945.945,0,0,0-1.315.3.975.975,0,0,0,.3,1.333,4.729,4.729,0,0,1,0,7.95.984.984,0,0,0,0,1.636,4.729,4.729,0,0,1,0,7.95Z"/>
      <path id="Path_37" data-name="Path 37" d="M264.892,246.009a.974.974,0,0,0-.3,1.333.945.945,0,0,0,1.314.3,6.678,6.678,0,0,0,0-11.223.946.946,0,0,0-1.314.3.974.974,0,0,0,.3,1.333,4.729,4.729,0,0,1,0,7.95Z"/>
      <path id="Path_38" data-name="Path 38" d="M250.928,246.009a.976.976,0,0,0-.3,1.333.949.949,0,0,0,.808.452.937.937,0,0,0,.506-.148,6.677,6.677,0,0,0,0-11.223.946.946,0,0,0-1.314.3.975.975,0,0,0,.3,1.333,4.728,4.728,0,0,1,0,7.95Z"/>
    </g>
  </g>
</svg>
