<svg xmlns="http://www.w3.org/2000/svg" width="60" height="68" viewBox="0 0 60 68">
  <g id="Vector_Smart_Object" data-name="Vector Smart Object" transform="translate(-226 -225.533)">
    <g id="surface1">
      <path id="Path_39" data-name="Path 39" d="M246.514,287.647v4.558H284.69V270.869h-9.05l-13.167,10.315Z" fill="#ffb954"/>
      <path id="Path_40" data-name="Path 40" d="M279.941,265.642V252.889a10.268,10.268,0,0,0-3.574-7.8l-4.806,3.919a6.15,6.15,0,0,1,2.387,4.873v11.762Z" fill="#6a80ff"/>
      <path id="Path_41" data-name="Path 41" d="M233.787,270.782l5.924-4.076a4.765,4.765,0,0,1,2.7-.842,4.844,4.844,0,0,1,4.81,4.877v9.129l-6.289,2.551v-8.61l-6.637,4.026a1.46,1.46,0,0,0-.7,1.249v13.12h-2.576V270.782Z" fill="#6a80ff"/>
      <path id="Path_42" data-name="Path 42" d="M250.336,250.651l-14.064,5.088a4.78,4.78,0,0,0-3.132,4.505v10.537h1.417a3.256,3.256,0,0,1,3.233-3.279v-7.129l11.544-8.042A2.386,2.386,0,0,0,250.336,250.651Z" fill="#a0e557"/>
      <path id="Path_43" data-name="Path 43" d="M263.556,241.1l-12.118,9.256a2.309,2.309,0,0,0,1.586-.069l12.709-5.276,5.828,3.991,5.242-4.274-5.591-3.828A6.516,6.516,0,0,0,263.556,241.1Z" fill="#72d8ff"/>
      <path id="Path_44" data-name="Path 44" d="M234.575,242.207a4.93,4.93,0,0,0-2.836,4.479v.849a4.93,4.93,0,0,0,2.836,4.479,4.93,4.93,0,0,0,2.835-4.479v-.849A4.93,4.93,0,0,0,234.575,242.207Z" fill="#fcc69d"/>
      <path id="Path_45" data-name="Path 45" d="M261.769,237.14a4.979,4.979,0,0,0-.857-5.792l-.593-.6a4.81,4.81,0,0,0-4.717-1.267,4.978,4.978,0,0,0,.858,5.792l.592.6A4.811,4.811,0,0,0,261.769,237.14Z" fill="#fcc69d"/>
      <path id="Path_46" data-name="Path 46" d="M227.31,281.448a1.313,1.313,0,0,0,.926-.389,1.341,1.341,0,0,0,0-1.879,1.3,1.3,0,0,0-1.852,0,1.341,1.341,0,0,0,0,1.879A1.313,1.313,0,0,0,227.31,281.448Z"/>
      <path id="Path_47" data-name="Path 47" d="M280.842,240.938l0,0-8.733-5.98a7.812,7.812,0,0,0-5.579-1.285,6.412,6.412,0,0,0,.13-1.282,6.26,6.26,0,0,0-1.807-4.422l-.593-.6a6.11,6.11,0,0,0-8.725,0,6.316,6.316,0,0,0,0,8.845l.593.6a6.118,6.118,0,0,0,2.62,1.578l-8.815,6.734a3.683,3.683,0,0,0-1.207,1.613,3.583,3.583,0,0,0-1.95.139l-8.538,3.089a6.31,6.31,0,0,0,.484-2.429v-.85a6.17,6.17,0,1,0-12.339,0v.85a6.271,6.271,0,0,0,3.3,5.535A6.127,6.127,0,0,0,226,258.7v15.841a1.31,1.31,0,1,0,2.62,0v-2.43h5.167a1.29,1.29,0,0,0,.736-.229l5.924-4.077a3.454,3.454,0,0,1,1.965-.612,3.528,3.528,0,0,1,3.5,3.548v8.23l-3.668,1.488v-6.648a1.333,1.333,0,0,0-.664-1.156,1.3,1.3,0,0,0-1.319.016l-6.638,4.025a2.809,2.809,0,0,0-1.336,2.39v11.792H228.62V285.3a1.31,1.31,0,1,0-2.62,0v6.9a1.318,1.318,0,0,0,1.31,1.328H233.6a1.318,1.318,0,0,0,1.31-1.328v-13.12a.128.128,0,0,1,.062-.109l4.654-2.823v16.053a1.319,1.319,0,0,0,1.31,1.328H284.69a1.318,1.318,0,0,0,1.31-1.328V250.6A11.538,11.538,0,0,0,280.842,240.938Zm2.538,9.66v13.717h-2.62V253.84a1.31,1.31,0,1,0-2.62,0v10.475h-2.882V253.88a7.552,7.552,0,0,0-1.72-4.782l6.61-5.389A8.891,8.891,0,0,1,283.38,250.6Zm-25.994-16.265a3.632,3.632,0,0,1,0-5.088,3.515,3.515,0,0,1,5.02,0l.592.6a3.638,3.638,0,0,1,0,5.089,3.52,3.52,0,0,1-5.02,0Zm-5.878,12.913,13-9.928a5.227,5.227,0,0,1,6.135-.16l7.263,4.974-6.41,5.227-5.026-3.443a1.293,1.293,0,0,0-1.23-.128l-12.709,5.276a1.038,1.038,0,0,1-1.285-.434l0-.006A1.062,1.062,0,0,1,251.508,247.245ZM229,246.686a3.55,3.55,0,1,1,7.1,0v.85a3.55,3.55,0,1,1-7.1,0ZM228.62,258.7a3.46,3.46,0,0,1,2.263-3.254l16.772-6.069a1.035,1.035,0,0,1,1.243.455,1.066,1.066,0,0,1-.306,1.405l-11.544,8.042a1.334,1.334,0,0,0-.568,1.095v6.95l-3.1,2.13H228.62Zm13.793,5.836a6.037,6.037,0,0,0-3.313.988v-4.452l10.976-7.647a3.676,3.676,0,0,0,1.333-1.71,3.628,3.628,0,0,0,.741.078,3.558,3.558,0,0,0,1.371-.274l12.06-5.006,5.206,3.565a4.842,4.842,0,0,1,1.851,3.8v10.434h-2.577a1.3,1.3,0,0,0-.8.277l-13.022,10.2-7.705,3.12v-7.173A6.17,6.17,0,0,0,242.413,264.536Zm40.967,26.341H242.245v-7.556l15.135-6.13a1.273,1.273,0,0,0,.315-.182l12.813-10.038H283.38Z"/>
      <path id="Path_48" data-name="Path 48" d="M275.345,274.984h1.747v5.136a1.31,1.31,0,1,0,2.62,0v-6.464a1.32,1.32,0,0,0-1.31-1.328h-3.057a1.328,1.328,0,0,0,0,2.656Z"/>
      <path id="Path_49" data-name="Path 49" d="M278.4,283.973a1.311,1.311,0,0,0-.926.389,1.341,1.341,0,0,0,0,1.879,1.3,1.3,0,0,0,1.852,0,1.341,1.341,0,0,0,0-1.879A1.315,1.315,0,0,0,278.4,283.973Z"/>
    </g>
  </g>
</svg>
