<svg xmlns="http://www.w3.org/2000/svg" width="59.999" height="57" viewBox="0 0 59.999 57">
  <g id="Vector_Smart_Object" data-name="Vector Smart Object" transform="translate(-226.001 -228.845)">
    <ellipse id="Ellipse_2" data-name="Ellipse 2" cx="13.409" cy="13.479" rx="13.409" ry="13.479" transform="translate(242.56 229.691)" fill="#ff5050"/>
    <path id="Path_50" data-name="Path 50" d="M244.9,243.17a13.451,13.451,0,0,1,12.237-13.427q-.579-.051-1.171-.052a13.479,13.479,0,0,0,0,26.958q.593,0,1.171-.052A13.451,13.451,0,0,1,244.9,243.17Z" fill="#ee3e3e"/>
    <path id="Path_51" data-name="Path 51" d="M261.207,241.094H258.3a.246.246,0,0,1-.245-.246V237.92a2.114,2.114,0,0,0-2.259-2.156,2.089,2.089,0,0,0-1.9,2.086v3a.246.246,0,0,1-.246.247h-2.912a2.115,2.115,0,0,0-2.144,2.271,2.086,2.086,0,0,0,2.074,1.915h2.894a.335.335,0,0,1,.334.336v2.839a2.113,2.113,0,0,0,2.258,2.155,2.088,2.088,0,0,0,1.906-2.085v-2.932a.312.312,0,0,1,.311-.313h2.916a2.087,2.087,0,0,0,2.075-1.915A2.116,2.116,0,0,0,261.207,241.094Z" fill="#00c3ff"/>
    <g id="Group_5" data-name="Group 5">
      <path id="Path_52" data-name="Path 52" d="M250.926,243.364a2.116,2.116,0,0,1,2.145-2.271h-2.342a2.115,2.115,0,0,0-2.145,2.271,2.087,2.087,0,0,0,2.075,1.915H253A2.087,2.087,0,0,1,250.926,243.364Z" fill="#06b0f2"/>
      <path id="Path_53" data-name="Path 53" d="M256.228,240.846v-3a2.092,2.092,0,0,1,.9-1.723,2.021,2.021,0,0,0-1.34-.363,2.089,2.089,0,0,0-1.9,2.086v3a.246.246,0,0,1-.246.247h2.342A.246.246,0,0,0,256.228,240.846Z" fill="#06b0f2"/>
      <path id="Path_54" data-name="Path 54" d="M256.228,248.453v-2.838a.334.334,0,0,0-.334-.336h-2.342a.335.335,0,0,1,.334.336v2.838a2.114,2.114,0,0,0,2.259,2.156,2.059,2.059,0,0,0,1-.363A2.183,2.183,0,0,1,256.228,248.453Z" fill="#06b0f2"/>
    </g>
    <path id="Path_55" data-name="Path 55" d="M231.888,246.819l3.333,8.053c.283-.575.2-.226.752-7.967a2.436,2.436,0,0,0-4.63-1.236A4.34,4.34,0,0,1,231.888,246.819Z" fill="#e59770"/>
    <path id="Path_56" data-name="Path 56" d="M233.84,246.808c-.012-.036-.035-.112-.073-.214a1.721,1.721,0,0,1,.771-2.1,2.407,2.407,0,0,0-.822-.211,2.437,2.437,0,0,0-2.374,1.386,4.322,4.322,0,0,1,.546,1.15l3.333,8.053c.27-.549.229-.663.443-3.654C235.658,251.2,233.845,246.824,233.84,246.808Z" fill="#dd855f"/>
    <path id="Path_57" data-name="Path 57" d="M240.173,270.129a4.908,4.908,0,0,1,.986,2.609l.108,1.609,10.187-.75a36.721,36.721,0,0,0-1.091-6.574c-.633-2.362-1.145-3.054-3.983-6.591h0c-.949-1.138-1.693-1.431-7.179-4.509a2.276,2.276,0,0,0-3.127.726l-4.069-9.829c-.068-.2-.78-2.721-3.12-2.157-2.148.592-1.818,2.915-1.726,3.355l3.772,13.944h0a6.046,6.046,0,0,0,2.73,3.827C238.787,268.664,239.04,268.635,240.173,270.129Z" fill="#f0a479"/>
    <path id="Path_58" data-name="Path 58" d="M243.5,272.738a4.908,4.908,0,0,0-.986-2.609c-1.14-1.5-1.445-1.5-6.512-4.341a6.008,6.008,0,0,1-2.73-3.829L229.5,248.017c-.083-.4-.357-2.318,1.157-3.129a2.264,2.264,0,0,0-1.773-.225c-2.148.592-1.818,2.914-1.726,3.355l3.772,13.943v0a6.049,6.049,0,0,0,2.73,3.827l4.4,2.466a5.782,5.782,0,0,1,3.1,4.483l.108,1.609,2.331-.172Z" fill="#e59770"/>
    <path id="Path_59" data-name="Path 59" d="M240.672,284.926H253.55a.991.991,0,0,0,.984-1.066l-.7-9.573a.979.979,0,0,0-1.045-.907l-12.844.946a.979.979,0,0,0-.9,1.05l.627,8.616A1,1,0,0,0,240.672,284.926Z" fill="#ffc850"/>
    <path id="Path_60" data-name="Path 60" d="M242.069,284.4l-.681-9.339a1.064,1.064,0,0,1,.346-.865l-1.786.131a.98.98,0,0,0-.9,1.05l.628,8.616a1,1,0,0,0,1,.933h1.578A1.1,1.1,0,0,1,242.069,284.4Z" fill="#f9b938"/>
    <path id="Path_61" data-name="Path 61" d="M280.482,246.819l-3.334,8.053a2.478,2.478,0,0,1-.246-.908l-.506-7.059a2.437,2.437,0,0,1,4.631-1.236A4.339,4.339,0,0,0,280.482,246.819Z" fill="#e59770"/>
    <path id="Path_62" data-name="Path 62" d="M278.715,246.906a2.454,2.454,0,0,1,1.273-2.332,2.421,2.421,0,0,0-1.334-.291,2.448,2.448,0,0,0-2.258,2.623l.506,7.059a2.478,2.478,0,0,0,.246.908l1.822-4.4Z" fill="#dd855f"/>
    <path id="Path_63" data-name="Path 63" d="M272.2,270.129a4.906,4.906,0,0,0-.985,2.609l-.109,1.609-10.187-.75a36.635,36.635,0,0,1,1.092-6.574c.633-2.362,1.144-3.054,3.982-6.591h0c.949-1.138,1.694-1.431,7.18-4.509a2.277,2.277,0,0,1,3.127.726l4.069-9.829c.068-.2.779-2.721,3.119-2.157,2.148.592,1.819,2.915,1.726,3.355,0,.007-3.77,13.939-3.772,13.945a6.046,6.046,0,0,1-2.73,3.827C273.583,268.664,273.33,268.635,272.2,270.129Z" fill="#f0a479"/>
    <g id="Group_6" data-name="Group 6">
      <path id="Path_64" data-name="Path 64" d="M278.169,257.069l4.069-9.829c.056-.169.556-1.928,2.059-2.2a2.564,2.564,0,0,0-.813-.376c-2.34-.564-3.051,1.953-3.12,2.157l-3.8,9.187A2.5,2.5,0,0,1,278.169,257.069Z" fill="#e59770"/>
      <path id="Path_65" data-name="Path 65" d="M263.88,267.443c.633-2.362,1.144-3.054,3.982-6.591h0c.949-1.138,1.694-1.431,7.18-4.509a2.9,2.9,0,0,1,.7-.288,2.164,2.164,0,0,0-2.574-.133c-5.486,3.077-6.231,3.371-7.18,4.509h0c-2.838,3.537-3.35,4.229-3.983,6.591a36.72,36.72,0,0,0-1.091,6.574l1.9.14A36.479,36.479,0,0,1,263.88,267.443Z" fill="#e59770"/>
    </g>
    <path id="Path_66" data-name="Path 66" d="M271.7,284.926H258.82a.991.991,0,0,1-.985-1.066l.7-9.573a.978.978,0,0,1,1.045-.907l12.844.946a.98.98,0,0,1,.9,1.05l-.628,8.616A1,1,0,0,1,271.7,284.926Z" fill="#ffc850"/>
    <path id="Path_67" data-name="Path 67" d="M260.177,283.86l.7-9.573a.98.98,0,0,1,.482-.775l-1.78-.132a.978.978,0,0,0-1.044.908l-.7,9.572a.991.991,0,0,0,.984,1.066h2.343A.991.991,0,0,1,260.177,283.86Z" fill="#f9b938"/>
    <path id="Path_68" data-name="Path 68" d="M254.528,274.26a1.856,1.856,0,0,0-1.985-1.723l-.475.034a36.286,36.286,0,0,0-1.041-5.742c-.679-2.534-1.3-3.373-4.147-6.916l-.011-.013c-1.069-1.28-1.879-1.6-7.425-4.712a3.072,3.072,0,0,0-3.228-.013l-.112-.269a3.337,3.337,0,0,0,.172-.841l.506-7.059a3.327,3.327,0,0,0-3.07-3.566,3.285,3.285,0,0,0-2.523.907c-2.09-1.566-5.9-.038-5.073,3.889.008.038,3.767,13.933,3.777,13.97a6.992,6.992,0,0,0,3.12,4.369c.094.058,2.086,1.163,2.183,1.217,3.012,1.671,3.258,1.807,4.094,2.909a4.507,4.507,0,0,1,.853,2.748l-.444.033a1.863,1.863,0,0,0-1.713,2l.627,8.615a1.891,1.891,0,0,0,1.874,1.751h12.878a1.873,1.873,0,0,0,1.861-2.013Zm-19.5-27.381-.332,4.629c-2.4-5.807-2.171-5.354-2.391-5.785A1.562,1.562,0,0,1,235.03,246.879Zm-1.106,18.186a5.09,5.09,0,0,1-2.33-3.3l-3.764-13.917c-.073-.364-.291-1.9,1.09-2.294a1.418,1.418,0,0,1,1.633.654c.181.263-.247-.714,4.365,10.428a2.688,2.688,0,0,0,.858,3.338c1.418,1.08,4.786,3.667,4.82,3.693a.874.874,0,0,0,1.231-.165.887.887,0,0,0-.164-1.238c-.034-.026-3.4-2.615-4.826-3.7-.836-.637-.287-1.537.324-1.9a1.32,1.32,0,0,1,1.428.066c5.392,3.025,6.1,3.308,6.929,4.3,2.844,3.546,3.24,4.125,3.813,6.261a34.223,34.223,0,0,1,.984,5.411l-8.42.62a6.187,6.187,0,0,0-1.208-3.69C239.43,267.973,239,267.912,233.924,265.065Zm19.521,18.978a.1.1,0,0,1-.08.035H240.487a.123.123,0,0,1-.122-.114l-.628-8.616a.1.1,0,0,1,.091-.1l12.844-.946h.008a.094.094,0,0,1,.063.024.1.1,0,0,1,.033.067l.7,9.572A.108.108,0,0,1,253.445,284.043Z"/>
    <path id="Path_69" data-name="Path 69" d="M280.812,244.347a3.32,3.32,0,0,0-5.593,2.659l.506,7.059a3.335,3.335,0,0,0,.171.841l-.111.269a3.072,3.072,0,0,0-3.229.013c-5.552,3.113-6.358,3.434-7.424,4.712l-.011.013c-2.843,3.543-3.468,4.382-4.147,6.916a36.266,36.266,0,0,0-1.041,5.742l-.476-.035a1.856,1.856,0,0,0-1.984,1.723l-.7,9.573a1.873,1.873,0,0,0,1.861,2.013h4.71a.883.883,0,0,0,0-1.766h-4.71a.1.1,0,0,1-.08-.035.1.1,0,0,1-.029-.082l.7-9.573a.1.1,0,0,1,.033-.066.1.1,0,0,1,.071-.024l12.844.946a.1.1,0,0,1,.09.106l-.627,8.616a.124.124,0,0,1-.122.114h-4.069a.883.883,0,0,0,0,1.766h4.069a1.889,1.889,0,0,0,1.873-1.751l.628-8.616a1.863,1.863,0,0,0-1.713-2l-.444-.032.044-.611a4.019,4.019,0,0,1,.809-2.138c1.008-1.329,1.168-1.259,6.241-4.1l.036-.022a6.989,6.989,0,0,0,3.12-4.369l3.766-13.921c0-.016.008-.032.011-.049C286.711,244.3,282.9,242.782,280.812,244.347Zm-3.842,2.532a1.562,1.562,0,0,1,2.723-1.156c-.189.373.194-.458-2.39,5.785Zm7.2.969c-.011.04-3.768,13.928-3.777,13.968a5.121,5.121,0,0,1-2.317,3.249c-5.078,2.847-5.506,2.908-6.764,4.566a6.2,6.2,0,0,0-1.207,3.69l-8.421-.62a34.37,34.37,0,0,1,.985-5.412c.572-2.136.968-2.714,3.813-6.26.828-.99,1.537-1.274,6.929-4.3a1.368,1.368,0,0,1,1.955.424l.005.007.009.015a.951.951,0,0,1-.218,1.391c-1.42,1.082-4.791,3.671-4.825,3.7a.886.886,0,0,0-.165,1.237.876.876,0,0,0,1.231.166c.034-.026,3.4-2.614,4.82-3.694a2.686,2.686,0,0,0,.859-3.337c5.3-12.809,3.93-9.586,4.419-10.521C282.442,244.869,284.63,245.546,284.171,247.848Z"/>
    <path id="Path_70" data-name="Path 70" d="M256.005,251.536a2.971,2.971,0,0,0,2.96-2.976V246.2h2.349a2.976,2.976,0,0,0,0-5.952h-2.349v-2.361a2.961,2.961,0,1,0-5.921,0v2.361H250.7a2.976,2.976,0,0,0,0,5.952h2.349v2.361A2.972,2.972,0,0,0,256.005,251.536Zm-5.31-7.1a1.21,1.21,0,0,1,0-2.421h3.227a.88.88,0,0,0,.879-.883v-3.244a1.2,1.2,0,1,1,2.407,0v3.244a.88.88,0,0,0,.879.883h3.227a1.21,1.21,0,0,1,0,2.421h-3.227a.881.881,0,0,0-.879.883v3.245a1.2,1.2,0,1,1-2.407,0v-3.245a.88.88,0,0,0-.878-.883Z"/>
    <path id="Path_71" data-name="Path 71" d="M270.127,245.391a.879.879,0,1,0-1.737-.266,12.594,12.594,0,1,1,0-3.852.878.878,0,1,0,1.736-.269,14.407,14.407,0,1,0,0,4.388Z"/>
  </g>
</svg>
