<svg xmlns="http://www.w3.org/2000/svg" width="60" height="56.001" viewBox="0 0 60 56.001">
  <g id="Vector_Smart_Object" data-name="Vector Smart Object" transform="translate(-226 -232.195)">
    <g id="surface1">
      <path id="Path_72" data-name="Path 72" d="M243.526,261.867l-3.88-4.958a3.167,3.167,0,0,0-1.807-1.156l-.237-3.538,5.659-13.435a3.9,3.9,0,0,0-1.3-4.679,3.845,3.845,0,0,0-1.314,1.671L235.3,248.8a33.516,33.516,0,0,0-2.505,12.72v16.887h13.594V270.2A13.521,13.521,0,0,0,243.526,261.867Z" fill="#fcc69d"/>
      <path id="Path_73" data-name="Path 73" d="M276.7,248.8l-5.344-13.029a3.845,3.845,0,0,0-1.314-1.671,3.905,3.905,0,0,0-1.3,4.679l5.659,13.435-.237,3.538a3.167,3.167,0,0,0-1.807,1.156l-3.88,4.958a13.521,13.521,0,0,0-2.865,8.331v8.21H279.2V261.52A33.516,33.516,0,0,0,276.7,248.8Z" fill="#fcc69d"/>
      <path id="Path_74" data-name="Path 74" d="M264.437,287.009v-8.6H279.2v8.6" fill="#72d8ff"/>
      <path id="Path_75" data-name="Path 75" d="M247.562,287.009v-8.6H233.324v8.6" fill="#72d8ff"/>
      <path id="Path_76" data-name="Path 76" d="M260.648,244.179A6.108,6.108,0,0,0,256,246.4a6.478,6.478,0,0,0-2.055-1.61,7.965,7.965,0,0,0-2.867,6.225c0,3.626,4.45,8.106,7.928,11.053,3.27-2.676,8.04-7.195,8.04-10.8C267.046,247.353,264.182,244.179,260.648,244.179Z" fill="#ff5d5d"/>
      <path id="Path_77" data-name="Path 77" d="M284.828,277.221H266.781V270.2a12.371,12.371,0,0,1,2.611-7.593l3.88-4.958a2.034,2.034,0,0,1,3.5.5,2.1,2.1,0,0,1-.189,1.93l-4.156,6.335a1.2,1.2,0,0,0,.328,1.644,1.163,1.163,0,0,0,1.624-.332l4.155-6.335a4.487,4.487,0,0,0,.409-4.138,4.365,4.365,0,0,0-7.507-1.081l-3.88,4.959a14.771,14.771,0,0,0-3.118,9.067v7.023a1.178,1.178,0,0,0-1.171,1.187v8.6a1.172,1.172,0,1,0,2.343,0v-7.415h18.047v7.415a1.172,1.172,0,1,0,2.344,0v-8.6A1.179,1.179,0,0,0,284.828,277.221Z"/>
      <path id="Path_78" data-name="Path 78" d="M283.647,272.1a1.169,1.169,0,0,0-.828.347,1.195,1.195,0,0,0,0,1.678,1.161,1.161,0,0,0,1.656,0,1.195,1.195,0,0,0,0-1.678A1.172,1.172,0,0,0,283.647,272.1Z"/>
      <path id="Path_79" data-name="Path 79" d="M273.32,252.679a1.166,1.166,0,0,0,1.538.627,1.193,1.193,0,0,0,.618-1.557l-5.659-13.435A2.692,2.692,0,0,1,271,234.889a2.6,2.6,0,0,1,2.15-.166,2.642,2.642,0,0,1,1.565,1.5l5.344,13.029a32.171,32.171,0,0,1,2.415,12.264v6.86a1.172,1.172,0,1,0,2.344,0v-6.86a34.537,34.537,0,0,0-2.6-13.174l-5.344-13.029a5.037,5.037,0,0,0-2.943-2.83,4.956,4.956,0,0,0-4.048.313,5.069,5.069,0,0,0-2.228,6.445Z"/>
      <path id="Path_80" data-name="Path 80" d="M271.044,282.529a1.162,1.162,0,0,0-1.656-.073,1.2,1.2,0,0,0-.073,1.676l.01.01a1.16,1.16,0,0,0,1.655.074,1.2,1.2,0,0,0,.073-1.676Z"/>
      <path id="Path_81" data-name="Path 81" d="M247.562,277.221V270.2a14.77,14.77,0,0,0-3.117-9.067l-3.88-4.959a4.365,4.365,0,0,0-7.507,1.081,4.49,4.49,0,0,0,.408,4.138l4.156,6.335a1.163,1.163,0,0,0,1.624.332,1.2,1.2,0,0,0,.328-1.644l-4.156-6.335a2.092,2.092,0,0,1-.189-1.93,2.034,2.034,0,0,1,3.5-.5l3.88,4.958a12.371,12.371,0,0,1,2.611,7.593v7.023H229.525v-15.7a32.174,32.174,0,0,1,2.415-12.264l5.344-13.029a2.642,2.642,0,0,1,1.565-1.5,2.6,2.6,0,0,1,2.15.166,2.692,2.692,0,0,1,1.184,3.424l-5.659,13.435a1.193,1.193,0,0,0,.618,1.557,1.167,1.167,0,0,0,1.538-.627l5.659-13.434a5.068,5.068,0,0,0-2.228-6.444,4.953,4.953,0,0,0-4.048-.314,5.04,5.04,0,0,0-2.943,2.83l-5.344,13.029a34.54,34.54,0,0,0-2.594,13.174v15.7h-.01A1.179,1.179,0,0,0,226,278.407v8.6a1.172,1.172,0,1,0,2.344,0v-7.415h18.047v7.415a1.172,1.172,0,1,0,2.343,0v-8.6A1.178,1.178,0,0,0,247.562,277.221Z"/>
      <path id="Path_82" data-name="Path 82" d="M240.956,282.529l-.009.011a1.2,1.2,0,0,0,.073,1.676,1.16,1.16,0,0,0,1.655-.074l.01-.01a1.2,1.2,0,0,0-.073-1.676A1.162,1.162,0,0,0,240.956,282.529Z"/>
      <path id="Path_83" data-name="Path 83" d="M268.218,251.266c0-4.561-3.4-8.273-7.57-8.273A7.2,7.2,0,0,0,256,244.737a7.2,7.2,0,0,0-4.648-1.743c-4.174,0-7.57,3.712-7.57,8.273,0,2.618,1.985,5.805,5.9,9.472a54.3,54.3,0,0,0,5.66,4.6,1.159,1.159,0,0,0,1.318,0,54.3,54.3,0,0,0,5.66-4.6C266.233,257.072,268.218,253.884,268.218,251.266Zm-7.471,7.711A53.139,53.139,0,0,1,256,262.9a53.384,53.384,0,0,1-4.727-3.9c-3.319-3.109-5.147-5.854-5.147-7.73,0-3.253,2.344-5.9,5.226-5.9a4.918,4.918,0,0,1,3.762,1.806,1.162,1.162,0,0,0,1.772,0,4.917,4.917,0,0,1,3.762-1.806c2.882,0,5.226,2.647,5.226,5.9C265.874,253.138,264.053,255.876,260.747,258.977Z"/>
    </g>
  </g>
</svg>
